<?xml version="1.0" encoding="utf-8"?>
<!-- Generator: Adobe Illustrator 15.0.0, SVG Export Plug-In  -->
<!DOCTYPE svg PUBLIC "-//W3C//DTD SVG 1.1//EN" "http://www.w3.org/Graphics/SVG/1.1/DTD/svg11.dtd" [
	<!ENTITY ns_flows "http://ns.adobe.com/Flows/1.0/">
]>
<svg version="1.1"
	 xmlns="http://www.w3.org/2000/svg" xmlns:xlink="http://www.w3.org/1999/xlink" xmlns:a="http://ns.adobe.com/AdobeSVGViewerExtensions/3.0/"
	 x="0px" y="0px" width="595px" height="842px" viewBox="-287.63 -411.114 595 842"
	 overflow="visible" enable-background="new -287.63 -411.114 595 842" xml:space="preserve">
<defs>
</defs>
<path fill="#676767" d="M10.161,2.717c4.103,0,7.441,3.339,7.441,7.443s-3.338,7.443-7.441,7.443c-4.104,0-7.444-3.339-7.444-7.443
	S6.057,2.717,10.161,2.717 M10.161,0C4.55,0,0,4.549,0,10.16s4.55,10.16,10.161,10.16c5.611,0,10.158-4.549,10.158-10.16
	S15.772,0,10.161,0L10.161,0z"/>
<path fill="none" stroke="#555356" stroke-width="2" stroke-miterlimit="10" d="M13.706,13.1c-0.863,1.078-2.189,1.769-3.677,1.769
	c-2.6,0-4.708-2.108-4.708-4.708s2.108-4.708,4.708-4.708c1.615,0,3.041,0.813,3.886,2.054"/>
</svg>
