<?xml version="1.0" encoding="utf-8"?>
<!-- Generator: Adobe Illustrator 15.0.2, SVG Export Plug-In . SVG Version: 6.00 Build 0)  -->
<!DOCTYPE svg PUBLIC "-//W3C//DTD SVG 1.1//EN" "http://www.w3.org/Graphics/SVG/1.1/DTD/svg11.dtd">
<svg version="1.1" id="Layer_1" xmlns="http://www.w3.org/2000/svg" xmlns:xlink="http://www.w3.org/1999/xlink" x="0px" y="0px"
	 width="126px" height="126px" viewBox="0 0 126 126" enable-background="new 0 0 126 126" xml:space="preserve">
<path fill="#4E59A4" d="M73.979,24.442c-0.004-0.468-0.151-0.929-0.475-1.295L53.838,0.682c-0.006-0.005-0.012-0.008-0.016-0.013
	c-0.117-0.132-0.254-0.239-0.398-0.334c-0.043-0.028-0.086-0.054-0.131-0.078c-0.125-0.069-0.258-0.124-0.395-0.165
	c-0.037-0.011-0.07-0.027-0.107-0.035C52.643,0.021,52.488,0,52.332,0H4C1.793,0,0,1.794,0,4v94c0,2.205,1.793,4,4,4h66
	c2.205,0,4-1.795,4-4V24.666C74,24.591,73.988,24.517,73.979,24.442z M70,67.916H4V4h46.332v20.465c0,1.104,0.896,2,2,2H70V67.916z
	 M17.262,90.648l-1.761,6.347H9.742l7.52-24.724h7.336l7.703,24.724h-6.053l-1.907-6.347H17.262z M23.535,86.468l-1.541-5.245
	c-0.44-1.468-0.88-3.303-1.247-4.77h-0.073c-0.367,1.467-0.734,3.338-1.137,4.77l-1.467,5.245H23.535z M35.569,72.602
	c1.724-0.293,4.145-0.514,7.557-0.514c3.448,0,5.906,0.66,7.557,1.98c1.614,1.248,2.641,3.302,2.641,5.723s-0.771,4.512-2.274,5.869
	c-1.907,1.761-4.732,2.604-8.033,2.604c-0.734,0-1.394-0.035-1.908-0.146v8.877H35.57L35.569,72.602L35.569,72.602z M41.108,83.826
	c0.477,0.109,1.027,0.146,1.871,0.146c2.972,0,4.806-1.505,4.806-3.998c0-2.274-1.577-3.633-4.402-3.633
	c-1.101,0-1.871,0.073-2.274,0.184L41.108,83.826L41.108,83.826z M62.496,72.271v24.724H56.92V72.271H62.496z"/>
<path fill="#4E59A4" d="M54.129,22.859c0.113-0.311,0.193-0.629,0.193-0.965c0-4.131-8.926-6.36-17.327-6.36
	c-8.394,0-17.317,2.229-17.317,6.36c0,0.336,0.078,0.656,0.192,0.968l-0.044,0.08c-0.384,0.697-0.574,1.399-0.574,2.091v5.112
	c0,0.787,0.247,1.542,0.687,2.256l-0.058,0.098c-0.418,0.726-0.629,1.461-0.629,2.188v5.11c0,0.763,0.233,1.494,0.649,2.188
	l-0.02,0.032c-0.418,0.724-0.629,1.461-0.629,2.187v5.111c0,4.543,7.793,8.101,17.743,8.101c9.959,0,17.753-3.557,17.753-8.101
	v-5.111c0-0.726-0.211-1.465-0.634-2.188l-0.018-0.029c0.412-0.694,0.652-1.426,0.652-2.19v-5.11c0-0.728-0.211-1.465-0.634-2.19
	l-0.055-0.094c0.438-0.715,0.689-1.47,0.689-2.259v-5.112c0-0.691-0.193-1.396-0.574-2.093L54.129,22.859z M52.846,49.314
	c0,2.935-6.506,6.2-15.851,6.2c-9.337,0-15.845-3.265-15.845-6.2v-4.807c2.914,2.669,8.909,4.371,15.845,4.371
	c6.944,0,12.938-1.704,15.851-4.373V49.314z M52.846,39.796c0,2.932-6.506,6.2-15.851,6.2c-9.337,0-15.845-3.268-15.845-6.2v-4.807
	c2.914,2.667,8.909,4.371,15.845,4.371c6.944,0,12.938-1.704,15.851-4.374V39.796z M52.846,30.143c0,2.932-6.506,6.2-15.851,6.2
	c-9.337,0-15.845-3.267-15.845-6.2v-4.253c2.848,2.414,9.451,3.665,15.845,3.665c6.401,0,13.001-1.251,15.851-3.665V30.143z"/>
</svg>
