<?xml version="1.0" encoding="utf-8"?>
<!-- Generator: Adobe Illustrator 15.0.2, SVG Export Plug-In . SVG Version: 6.00 Build 0)  -->
<!DOCTYPE svg PUBLIC "-//W3C//DTD SVG 1.1//EN" "http://www.w3.org/Graphics/SVG/1.1/DTD/svg11.dtd">
<svg version="1.1" id="Layer_1" xmlns="http://www.w3.org/2000/svg" xmlns:xlink="http://www.w3.org/1999/xlink" x="0px" y="0px"
	 width="126px" height="126px" viewBox="0 0 126 126" enable-background="new 0 0 126 126" xml:space="preserve">
<path fill="#4E59A4" d="M73.979,24.442c-0.004-0.468-0.15-0.929-0.475-1.295L53.838,0.682c-0.006-0.005-0.012-0.008-0.016-0.013
	c-0.117-0.132-0.254-0.239-0.398-0.334c-0.043-0.028-0.086-0.054-0.131-0.078c-0.125-0.069-0.258-0.124-0.395-0.165
	c-0.037-0.011-0.07-0.027-0.107-0.035C52.643,0.021,52.488,0,52.332,0H4C1.793,0,0,1.794,0,4v94c0,2.205,1.793,4,4,4h66
	c2.205,0,4-1.795,4-4V24.666C74,24.591,73.988,24.517,73.979,24.442z M70,67.916H4V4h46.332v20.465c0,1.104,0.896,2,2,2H70V67.916z
	 M17.262,90.648l-1.761,6.347H9.742l7.52-24.724h7.336l7.703,24.724h-6.053l-1.907-6.347H17.262z M23.535,86.468l-1.541-5.245
	c-0.44-1.468-0.88-3.303-1.247-4.77h-0.073c-0.367,1.467-0.734,3.338-1.137,4.77l-1.467,5.245H23.535z M35.569,72.602
	c1.724-0.293,4.145-0.514,7.557-0.514c3.448,0,5.906,0.66,7.557,1.98c1.614,1.248,2.641,3.302,2.641,5.723s-0.771,4.512-2.274,5.869
	c-1.907,1.761-4.732,2.604-8.033,2.604c-0.734,0-1.394-0.035-1.908-0.146v8.877H35.57L35.569,72.602L35.569,72.602z M41.108,83.826
	c0.477,0.109,1.027,0.146,1.871,0.146c2.972,0,4.806-1.506,4.806-3.998c0-2.274-1.577-3.634-4.402-3.634
	c-1.101,0-1.871,0.073-2.274,0.185L41.108,83.826L41.108,83.826z M62.496,72.271v24.724H56.92V72.271H62.496z"/>
<path fill="#4E59A4" d="M37,14.5c-11.999,0-21.726,9.728-21.726,21.727c0,11.996,9.728,21.725,21.726,21.725
	c12,0,21.726-9.729,21.726-21.725C58.726,24.228,49,14.5,37,14.5z M45.164,23.122l1.554-1.038c0,0-0.653-1.674-0.543-2.494
	c0.379-0.183,1.907,0.62,3.201,1.981c-0.871,3.239-2.913,2.853-2.913,2.853S44.968,24.387,45.164,23.122z M32.069,42.253
	c-0.096,0.487-0.682,1.654-1.07,2.431s-0.582,1.069-1.07,1.457c-0.488,0.395-0.776,1.074-0.776,1.074l-0.098,1.651
	c0,0,0.191,1.365,0.483,1.852c0.292,0.485-1.042,3.381-1.042,3.381c-0.846-0.167-1.315-1.147-1.609-1.919
	c-0.293-0.782-0.68-1.197-0.583-2.07c0.098-0.875-0.755-1.337-1.043-1.822c-0.29-0.493-0.682-1.169-0.682-1.656
	c0-0.49-1.068-1.169-1.068-1.169s-1.946-0.875-2.238-1.262c-0.292-0.39-0.587-2.047-0.681-2.727c-0.099-0.678,0.29-2.427,0.29-2.427
	s0.786-0.592,0.292-1.071c-0.487-0.486-0.58-1.753-0.58-1.753l-0.877-0.97c0,0-0.683-0.974-0.779-1.461
	c-0.098-0.485,0-0.777,0.098-1.267c0.096-0.489-0.194-1.359-0.194-1.845c3.634-8.909,9.727-10.99,9.727-10.99l0.488,2.038
	c0,0-1.069,0.295-1.65,0.099c-0.587-0.194-0.882-0.194-0.882-0.194l-0.774,1.068c0,0-0.297,0.683-0.393,1.072
	c-0.096,0.39,0.194,0.969,0.194,0.969s1.359,0.099,1.359-0.291s-0.191-0.582-0.191-0.582l-0.196-0.683c0,0,0.882-0.488,3.208-0.295
	c2.334,0.197,1.462,1.848,2.437,2.241c0.973,0.39-0.783,1.749-1.171,2.525c-0.387,0.779-0.971-0.974-0.971-0.974
	s0.583-0.671-0.388-0.874c-0.973-0.189-1.617,1.751-1.125,1.657c0.484-0.097,1.027,0.523,0.928,1.01
	c-0.098,0.486-0.098,0.447-0.584,1.517c-0.486,1.069-1.543,1.861-1.543,1.861s-0.497-0.301-0.209,0.284
	c0.298,0.582-0.097,1.941-0.097,2.333c0,0.386-1.167-0.682-1.358-1.658c-0.199-0.966-1.337-0.123-1.726-0.025
	c-0.39,0.099-1.099-0.167-1.287-0.65c-0.199-0.491-1.951,0.97-2.438,1.261c-0.484,0.292-0.287,1.072,0.488,0.682
	c0.777-0.39,1.457-0.098,1.265,0.687c-0.193,0.773-0.969,0.29-0.875,0.773c0.096,0.486,0.875,0.973,1.067,1.656
	c0.195,0.678,2.047,0.098,2.629-0.196c0.582-0.295,2.236-0.584,2.429,0.196c0.202,0.778,2.045,1.066,2.726,1.259
	c0.683,0.197,2.044,0.292,2.825,1.072C33.528,40.306,32.17,41.766,32.069,42.253z M36.445,19.491
	c-0.099,0.975-1.651,2.237-1.457,2.629c0.195,0.392,0,2.056-1.362,0.595c-1.362-1.46-2.727-1.956-2.626-2.931
	c0.024-0.194,1.409-0.498,1.431-0.839c2.063-1.918,5.356-1.524,5.609-1.069C37.452,18.841,36.544,18.52,36.445,19.491z
	 M53.347,26.024c1.315,2.257,3.238,8.275,2.527,9.352c-0.426-0.192-0.785-0.354-0.785-0.354h-2.596l1.556,1.817
	c0,0,0.752,1.103,1.818,1.034c-0.703,8.135-7.491,13.358-7.491,13.358c-1.037-1.038-0.518-1.942-0.518-1.942l0.291-1.557
	l0.165-2.625c0,0,0-2.722-2.595-1.428c-2.788,0.711-1.625,0.711-4.441,0.907c-2.82,0.194-2.354-5.75-2.354-5.75
	c0-8.902,6.826-2.185,6.826-2.185c3.894,2.591,4.413-2.148,4.413-2.148l2.851-1.031l0.259-1.3l-0.414-1.811l-4.144-1.709
	c0,0-0.399,1.347,0.664,3c0,0-0.354,1.881-1.226,1.396l-2.401-1.208c0,0-0.807-0.349-2.104,0.431
	c-1.299,0.776-3.497-0.036-3.497-0.036s0.177-1.305,1.542-1.981l1.115-0.739c0,0-0.291-1.333-0.037-2.367
	c0.255-1.036,0.714-0.13,1.75-0.908c1.037-0.775,1.751,1.523,3.306,1.265c1.556-0.26,0.78-0.519,1.821-1.037
	c1.038-0.519,1.814,1.037,1.814,1.037l2.07,0.259C53.531,27.759,53.208,25.417,53.347,26.024z"/>
</svg>
