<?xml version="1.0" encoding="utf-8"?>
<!-- Generator: Adobe Illustrator 15.0.2, SVG Export Plug-In  -->
<!DOCTYPE svg PUBLIC "-//W3C//DTD SVG 1.1//EN" "http://www.w3.org/Graphics/SVG/1.1/DTD/svg11.dtd" [
	<!ENTITY ns_flows "http://ns.adobe.com/Flows/1.0/">
]>
<svg version="1.1"
	 xmlns="http://www.w3.org/2000/svg" xmlns:xlink="http://www.w3.org/1999/xlink" xmlns:a="http://ns.adobe.com/AdobeSVGViewerExtensions/3.0/"
	 x="0px" y="0px" width="126px" height="126px" viewBox="-26 -12 126 126"
	 overflow="visible" enable-background="new -26 -12 126 126" xml:space="preserve">
<defs>
</defs>
<path fill="#4E59A4" d="M73.979,24.443c-0.004-0.467-0.153-0.93-0.475-1.295L53.838,0.683c-0.006-0.006-0.012-0.008-0.016-0.014
	c-0.117-0.131-0.254-0.238-0.398-0.334c-0.043-0.027-0.086-0.053-0.131-0.078c-0.125-0.068-0.258-0.123-0.395-0.164
	c-0.037-0.012-0.07-0.027-0.107-0.037C52.643,0.021,52.488,0,52.332,0H4C1.793,0,0,1.795,0,4v94c0,2.205,1.793,4,4,4h66
	c2.205,0,4-1.795,4-4V24.667C74,24.591,73.988,24.517,73.979,24.443z M19.537,91.791c1.654,0,3.49-0.359,4.57-0.791l0.828,4.283
	c-1.008,0.504-3.275,1.045-6.227,1.045c-8.387,0-12.707-5.221-12.707-12.131c0-8.279,5.904-12.887,13.246-12.887
	c2.844,0,5.004,0.575,5.977,1.08l-1.117,4.354c-1.115-0.468-2.664-0.897-4.607-0.897c-4.355,0-7.738,2.627-7.738,8.024
	C11.762,88.732,14.641,91.791,19.537,91.791z M34.477,96.328c-2.771,0-5.508-0.721-6.875-1.477l1.115-4.535
	c1.477,0.756,3.744,1.512,6.084,1.512c2.52,0,3.852-1.045,3.852-2.629c0-1.512-1.151-2.375-4.067-3.418
	c-4.031-1.404-6.658-3.635-6.658-7.162c0-4.141,3.455-7.309,9.178-7.309c2.736,0,4.752,0.576,6.191,1.225l-1.223,4.428
	c-0.974-0.469-2.699-1.152-5.076-1.152c-2.375,0-3.527,1.08-3.527,2.34c0,1.55,1.367,2.232,4.5,3.42
	c4.282,1.584,6.299,3.814,6.299,7.234C44.268,92.871,41.137,96.328,34.477,96.328z M60.107,95.966h-6.406l-7.775-24.26h6.012
	l2.951,10.26c0.828,2.88,1.584,5.65,2.16,8.675h0.107c0.611-2.916,1.367-5.795,2.195-8.566l3.096-10.367h5.832L60.107,95.966z
	 M4,67.917V4h46.332v20.467c0,1.104,0.896,2,2,2H70v41.451L4,67.917L4,67.917z"/>
<path fill="#4E59A4" d="M55.85,31.492H43.6h-0.428h-12.25l0,0H18.885v5.412v0.406v5.006v0.428v4.986v0.426v5.412h12.678l0,0h24.309
	V36.404H55.85V31.492z M31.135,53.143H19.313v-4.986h11.822V53.143z M31.135,47.73H19.313v-4.986h11.822V47.73z M31.135,42.316
	H19.313v-4.984h11.609h0.213V42.316z M31.35,36.904V31.92h11.822v4.984H31.563H31.35z M55.371,53.068h-4.668V38.791h-3.205v14.277
	h-2.67v-11.32h-3.205v11.32h-2.352v-8.4h-3.206v8.4h-4.504v-4.912V47.73v-4.986v-0.428v-4.984h11.609H43.6h11.771V53.068z
	 M55.422,36.404h-0.051v0.5H43.6V31.92h11.822V36.404z"/>
</svg>
