<?xml version="1.0" encoding="utf-8"?>
<!-- Generator: Adobe Illustrator 15.0.2, SVG Export Plug-In  -->
<!DOCTYPE svg PUBLIC "-//W3C//DTD SVG 1.1//EN" "http://www.w3.org/Graphics/SVG/1.1/DTD/svg11.dtd" [
	<!ENTITY ns_flows "http://ns.adobe.com/Flows/1.0/">
]>
<svg version="1.1"
	 xmlns="http://www.w3.org/2000/svg" xmlns:xlink="http://www.w3.org/1999/xlink" xmlns:a="http://ns.adobe.com/AdobeSVGViewerExtensions/3.0/"
	 x="0px" y="0px" width="126px" height="126px" viewBox="-26 -12 126 126"
	 overflow="visible" enable-background="new -26 -12 126 126" xml:space="preserve">
<defs>
</defs>
<path fill="#4E59A4" d="M73.5,23.1L53.8,0.7c-0.1-0.1-0.3-0.2-0.399-0.3L53.3,0.3C53.2,0.2,53,0.2,52.9,0.1H52.8
	C52.6,0,52.5,0,52.3,0H4C1.8,0,0,1.8,0,4v94c0,2.2,1.8,4,4,4h66c2.2,0,4-1.8,4-4V24.7c0-0.1,0-0.2,0-0.3
	C74,23.9,73.9,23.5,73.5,23.1z M55.8,35.4C55.4,35.2,55,35,55,35h-2.6l1.6,1.8c0,0,0.8,1.1,1.8,1c-0.7,8.1-7.5,13.4-7.5,13.4
	c-1-1-0.5-1.9-0.5-1.9l0.3-1.6l0.2-2.6c0,0,0-2.7-2.6-1.4c-2.8,0.7-1.601,0.7-4.4,0.9c-2.8,0.2-2.399-5.8-2.399-5.8
	c0-8.9,6.8-2.2,6.8-2.2c3.899,2.6,4.399-2.1,4.399-2.1l2.9-1l0.3-1.3L52.9,30.4L48.8,28.7c0,0-0.399,1.3,0.7,3c0,0-0.4,1.9-1.2,1.4
	L45.9,31.9c0,0-0.801-0.3-2.101,0.4c-1.3,0.8-3.5,0-3.5,0s0.2-1.3,1.5-2l1.101-0.7c0,0-0.301-1.3,0-2.4c0.3-1,0.699-0.1,1.8-0.9
	c1-0.8,1.8,1.5,3.3,1.3c1.6-0.3,0.8-0.5,1.8-1s1.8,1,1.8,1l2.101,0.3c-0.112-0.056-0.255-0.832-0.342-1.4h0.204
	C54.838,29.068,56.454,34.372,55.8,35.4z M46.3,19.6c0.4-0.2,1.9,0.6,3.2,2c-0.9,3.2-2.9,2.9-2.9,2.9S45,24.4,45.2,23.1l1.6-1
	C46.8,22.1,46.1,20.4,46.3,19.6z M17.9,92.5c1.6,0,3.3-0.3,4.4-0.7L23,95.9c-0.9,0.399-3.1,1-5.8,1c-7.9,0-12-5-12-11.5
	C5.2,77.6,10.8,73.3,17.7,73.3c2.7,0,4.7,0.5,5.6,1L22.2,78.4c-1-0.4-2.5-0.801-4.4-0.801c-4.1,0-7.3,2.5-7.3,7.601
	C10.6,89.6,13.3,92.5,17.9,92.5z M30.3,96.8c-2.6,0-5.2-0.7-6.5-1.399l1.1-4.2c1.4,0.7,3.5,1.399,5.7,1.399c2.4,0,3.6-1,3.6-2.5
	c0-1.399-1.1-2.199-3.8-3.199c-3.8-1.4-6.3-3.5-6.3-6.801c0-3.899,3.3-6.899,8.7-6.899c2.6,0,4.5,0.5,5.8,1.2l-1.2,4.1
	c-0.9-0.4-2.5-1.1-4.8-1.1c-2.2,0-3.3,1.1-3.3,2.199c0,1.5,1.3,2.101,4.2,3.2c4,1.5,5.9,3.601,5.9,6.8
	C39.5,93.5,36.6,96.8,30.3,96.8z M63,96.4h-5.6l-1.9-9.9c-0.4-2.3-0.8-4.5-1.1-7.1H54.3C53.9,82,53.5,84.2,53,86.5l-2.2,9.9h-5.7
	L39.7,73.5h5.5l1.7,9.4c0.5,2.8,1,5.699,1.399,8H48.4c0.399-2.5,0.899-5.2,1.5-8.101l1.899-9.3h5.5l1.8,9.7c0.5,2.7,0.9,5.1,1.2,7.7
	H60.4c0.3-2.5,0.8-5.2,1.3-8L63.6,73.6H68.9L63,96.4z M70,67.9H4V4h46.3v15.057C46.628,16.2,42.017,14.5,37,14.5
	c-12,0-21.7,9.7-21.7,21.7S25,58,37,58s21.7-9.7,21.7-21.7c0-3.533-0.832-6.858-2.302-9.8H70V67.9z M33.5,22.7
	c-1.4-1.5-2.7-2-2.6-2.9c0-0.2,1.4-0.5,1.4-0.8c2.1-1.9,5.4-1.5,5.6-1.1c-0.4,0.9-1.4,0.6-1.5,1.6s-1.7,2.2-1.5,2.6
	C35.1,22.5,34.9,24.2,33.5,22.7z M29.5,50.9c0.3,0.5-1,3.4-1,3.4c-0.8-0.2-1.3-1.1-1.6-1.899c-0.3-0.8-0.7-1.2-0.6-2.101
	c0.1-0.9-0.8-1.3-1-1.8c-0.3-0.5-0.7-1.2-0.7-1.7s-1.1-1.2-1.1-1.2s-1.9-0.9-2.2-1.3c-0.3-0.4-0.6-2-0.7-2.7
	c-0.1-0.7,0.3-2.4,0.3-2.4s0.8-0.6,0.3-1.1s-0.6-1.8-0.6-1.8l-0.9-1c0,0-0.7-1-0.8-1.5s0-0.8,0.1-1.3s-0.2-1.4-0.2-1.8
	c3.6-8.9,9.7-11,9.7-11l0.5,2c0,0-1.1,0.3-1.6,0.1c-0.6-0.2-0.9-0.2-0.9-0.2l-0.8,1.1c0,0-0.3,0.7-0.4,1.1c-0.1,0.4,0.2,1,0.2,1
	s1.4,0.1,1.4-0.3s-0.2-0.6-0.2-0.6l-0.2-0.7c0,0,0.9-0.5,3.2-0.3c2.3,0.2,1.5,1.8,2.4,2.2c1,0.4-0.8,1.7-1.2,2.5c-0.4,0.8-1-1-1-1
	s0.6-0.7-0.4-0.9c-1-0.2-1.6,1.8-1.1,1.7s1,0.5,0.9,1c-0.1,0.5-0.1,0.4-0.6,1.5s-1.5,1.9-1.5,1.9s-0.5-0.3-0.2,0.3s-0.1,1.9-0.1,2.3
	s-1.2-0.7-1.4-1.7s-1.3-0.1-1.7,0c-0.4,0.1-1.1-0.2-1.3-0.6c-0.2-0.5-2,1-2.4,1.3c-0.5,0.3-0.3,1.1,0.5,0.7c0.8-0.4,1.5-0.1,1.3,0.7
	c-0.2,0.8-1,0.3-0.9,0.8s0.9,1,1.1,1.7c0.2,0.7,2,0.1,2.6-0.2c0.6-0.3,2.2-0.6,2.4,0.2c0.2,0.8,2,1.1,2.7,1.3c0.7,0.2,2,0.3,2.8,1.1
	c0.9,0.6-0.4,2.1-0.5,2.6S31.4,44,31,44.7c-0.4,0.7-0.6,1.1-1.1,1.5c-0.5,0.4-0.8,1.1-0.8,1.1L29,49C29,49,29.2,50.4,29.5,50.9z"/>
</svg>
