<?xml version="1.0" encoding="utf-8"?>
<!-- Generator: Adobe Illustrator 15.0.2, SVG Export Plug-In  -->
<!DOCTYPE svg PUBLIC "-//W3C//DTD SVG 1.1//EN" "http://www.w3.org/Graphics/SVG/1.1/DTD/svg11.dtd" [
	<!ENTITY ns_flows "http://ns.adobe.com/Flows/1.0/">
]>
<svg version="1.1"
	 xmlns="http://www.w3.org/2000/svg" xmlns:xlink="http://www.w3.org/1999/xlink" xmlns:a="http://ns.adobe.com/AdobeSVGViewerExtensions/3.0/"
	 x="0px" y="0px" width="126px" height="126px" viewBox="-25.893 -11.619 126 126"
	 overflow="visible" enable-background="new -25.893 -11.619 126 126" xml:space="preserve">
<defs>
</defs>
<path fill="#4E59A4" d="M39.614,79.569c-2.765,0-4.359,2.605-4.359,6.087c0,3.536,1.648,6.008,4.359,6.008
	c2.738,0,4.307-2.605,4.307-6.087C43.92,82.334,42.405,79.569,39.614,79.569z"/>
<path fill="#4E59A4" d="M23.944,62.606c-1.28,0-1.801,1.18-1.881,1.98h3.601C25.665,63.847,25.344,62.606,23.944,62.606z"/>
<path fill="#4E59A4" d="M34.884,68.628c1.2,0,1.94-1.181,1.94-2.961c0-1.44-0.561-2.921-1.94-2.921c-1.44,0-2,1.5-2,2.94
	C32.884,67.367,33.584,68.628,34.884,68.628z"/>
<path fill="#4E59A4" d="M73.98,24.444c-0.006-0.468-0.154-0.93-0.475-1.295L53.837,0.684c-0.004-0.006-0.01-0.008-0.017-0.014
	c-0.116-0.131-0.252-0.239-0.396-0.334c-0.043-0.028-0.086-0.053-0.131-0.078c-0.127-0.068-0.258-0.124-0.396-0.165
	c-0.037-0.011-0.069-0.026-0.106-0.036C52.642,0.022,52.489,0,52.333,0H4C1.795,0,0,1.795,0,4v94c0,2.206,1.795,4,4,4h66
	c2.207,0,4-1.794,4-4V24.667C74,24.592,73.988,24.518,73.98,24.444z M52.333,26.466h1.999c0.015,0.302,0.032,0.602,0.032,0.913
	c0,10.393-8.959,17.375-17.328,17.375c-0.111,0-11.089-0.403-11.089-14.814c0-7.094,4.406-10.921,8.553-10.921
	c0.076,0,0.153,0.001,0.229,0.004c-1.698,1.323-3.895,3.907-3.895,8.415c0,7.327,5.813,9.591,5.837,9.6
	c0.821,0.35,1.714,0.527,2.656,0.527c5.053,0,10.461-5.081,10.461-12.646c0-5.914-1.868-9.904-4.264-12.48
	c1.746,0.992,3.406,2.297,4.808,3.912v8.115C50.333,25.57,51.229,26.466,52.333,26.466z M43.106,27.475
	c0-7.364-5.817-9.594-5.876-9.616l-0.004,0.011l0-0.024c-0.877-0.303-1.794-0.456-2.725-0.456c-4.936,0-10.181,4.398-10.181,12.549
	c0,6.173,1.877,10.025,4.188,12.434c-4.818-2.73-8.874-7.776-8.874-14.955c0-10.393,8.959-17.374,17.329-17.374v-1.08l0.074,1.08
	c0.36,0,0.725,0.014,1.091,0.041c3.742,0.585,10.034,4.36,10.034,14.833c0,6.591-4.566,11.018-8.833,11.018
	c-0.068,0-0.133-0.006-0.199-0.009C40.841,34.628,43.106,32.05,43.106,27.475z M36.961,35.381c-1.077-0.535-4.498-2.649-4.498-7.944
	c0-5.231,3.431-7.381,4.49-7.92c1.048,0.513,4.526,2.616,4.526,7.958C41.479,32.73,38.002,34.86,36.961,35.381z M14.066,87.996
	c0,5.104-2.445,6.884-6.353,6.884c-0.957,0-2.18-0.159-2.977-0.425l0.452-3.27c0.558,0.187,1.276,0.319,2.073,0.319
	c1.701,0,2.765-0.771,2.765-3.535V76.673h4.04V87.996z M12.925,68.268c0.68,0,1.24-0.08,1.48-0.181v-2.84h-2.081v-2.381h5.021v7.102
	c-0.94,0.32-2.72,0.76-4.501,0.76c-2.46,0-4.241-0.62-5.481-1.8c-1.22-1.181-1.9-2.94-1.9-4.921c0.02-4.481,3.281-7.042,7.702-7.042
	c1.74,0,3.081,0.34,3.741,0.641l-0.64,2.46c-0.74-0.34-1.64-0.58-3.121-0.58c-2.541,0-4.481,1.421-4.481,4.361
	C8.664,66.647,10.424,68.268,12.925,68.268z M21.83,94.854c-2.047,0-4.067-0.558-5.077-1.116l0.824-3.322
	c1.063,0.558,2.765,1.116,4.492,1.116c1.861,0,2.844-0.771,2.844-1.94c0-1.116-0.851-1.755-3.004-2.499
	c-2.977-1.062-4.944-2.711-4.944-5.315c0-3.058,2.578-5.37,6.778-5.37c2.046,0,3.508,0.399,4.572,0.904l-0.904,3.242
	c-0.691-0.345-1.994-0.85-3.721-0.85c-1.754,0-2.605,0.823-2.605,1.728c0,1.143,0.983,1.647,3.322,2.524
	c3.164,1.17,4.625,2.818,4.625,5.343C29.033,92.302,26.747,94.854,21.83,94.854z M24.844,68.527c1.04,0,1.88-0.14,2.701-0.42
	l0.4,2.061c-1,0.42-2.22,0.62-3.541,0.62c-3.321,0-5.221-1.921-5.221-4.981c0-2.48,1.541-5.221,4.941-5.221
	c3.161,0,4.361,2.46,4.361,4.881c0,0.521-0.06,0.98-0.1,1.2h-6.302C22.164,67.928,23.424,68.527,24.844,68.527z M39.402,94.88
	c-5.29,0-8.427-4.014-8.427-9.144c0-5.369,3.456-9.383,8.719-9.383c5.502,0,8.506,4.12,8.506,9.091
	C48.2,91.345,44.665,94.88,39.402,94.88z M29.743,65.767c0-3.181,2.081-5.201,5.241-5.201c2.981,0,4.981,2.061,4.981,5.021
	c0,3.581-2.541,5.221-5.161,5.221C31.944,70.808,29.743,68.928,29.743,65.767z M65.693,94.588h-4.254l-3.827-6.911
	c-1.063-1.914-2.26-4.227-3.11-6.326h-0.105c0.133,2.393,0.186,4.918,0.186,7.842v5.396H50.86V76.673h4.731l3.722,6.565
	c1.063,1.887,2.1,4.119,2.924,6.14h0.054c-0.239-2.365-0.319-4.784-0.319-7.496v-5.209h3.722V94.588z M4,50.381V4h46.333v9.99
	c-3.324-3.226-7.706-5.185-12.021-5.523c-0.524-0.078-1.002-0.088-1.351-0.047V8.416c-9.155,0-18.957,7.635-18.957,19.001
	c0,11.714,9.84,18.963,18.957,18.963v-0.002c0.041,0.001,0.07,0.002,0.074,0.002c9.154,0,18.957-7.636,18.957-19.002
	c0-0.311-0.032-0.608-0.047-0.913H70l0.002,23.915H4z"/>
</svg>
