<?xml version="1.0" encoding="utf-8"?>
<!-- Generator: Adobe Illustrator 15.0.2, SVG Export Plug-In  -->
<!DOCTYPE svg PUBLIC "-//W3C//DTD SVG 1.1//EN" "http://www.w3.org/Graphics/SVG/1.1/DTD/svg11.dtd" [
	<!ENTITY ns_flows "http://ns.adobe.com/Flows/1.0/">
]>
<svg version="1.1"
	 xmlns="http://www.w3.org/2000/svg" xmlns:xlink="http://www.w3.org/1999/xlink" xmlns:a="http://ns.adobe.com/AdobeSVGViewerExtensions/3.0/"
	 x="0px" y="0px" width="126px" height="126px" viewBox="-25.893 -12.487 126 126"
	 overflow="visible" enable-background="new -25.893 -12.487 126 126" xml:space="preserve">
<defs>
</defs>
<path fill="#4E59A4" d="M73.981,24.444c-0.006-0.468-0.153-0.93-0.476-1.295L53.837,0.684c-0.004-0.006-0.01-0.008-0.016-0.014
	c-0.117-0.131-0.252-0.239-0.396-0.334c-0.043-0.028-0.086-0.053-0.131-0.078C53.167,0.19,53.037,0.134,52.9,0.093
	c-0.037-0.011-0.07-0.026-0.107-0.036C52.643,0.022,52.49,0,52.333,0H4C1.795,0,0,1.795,0,4v94c0,2.207,1.795,4,4,4h66
	c2.207,0,4-1.793,4-4V24.668C74,24.593,73.988,24.518,73.981,24.444z M45.557,94.949L45.25,87.02
	c-0.092-2.489-0.185-5.501-0.185-8.512h-0.092c-0.646,2.644-1.505,5.593-2.304,8.021l-2.521,8.082h-3.657l-2.212-8.021
	c-0.676-2.428-1.382-5.378-1.875-8.081h-0.062c-0.123,2.796-0.215,5.991-0.368,8.573l-0.369,7.865h-4.333l1.322-20.711h6.238
	l2.028,6.914c0.645,2.396,1.29,4.979,1.751,7.405h0.093c0.584-2.396,1.291-5.133,1.967-7.437l2.211-6.883h6.115l1.137,20.711h-4.577
	V94.949z M66.666,94.949H53.727V74.238h4.702v16.777h8.236V94.949z M4,67.917V4.001h46.333v20.466c0,1.104,0.896,2,2,2H70
	l0.002,41.45H4z M24.034,93.805c-1.443,0.491-4.178,1.167-6.914,1.167c-3.779,0-6.514-0.953-8.418-2.797
	c-1.906-1.781-2.951-4.485-2.92-7.528c0.031-6.884,5.039-10.817,11.83-10.817c2.674,0,4.732,0.522,5.746,1.016l-0.982,3.749
	c-1.137-0.492-2.551-0.892-4.824-0.892c-3.902,0-6.854,2.213-6.854,6.699c0,4.271,2.674,6.791,6.516,6.791
	c1.074,0,1.936-0.123,2.305-0.308v-4.332h-3.197v-3.657h7.713v10.909H24.034z"/>
<path fill="#4E59A4" d="M36.375,11.945c13.417-0.051,24.609,10.932,24.583,24.615C60.932,49.912,49.932,61.199,36.17,61.094
	C22.681,60.99,11.788,49.685,11.832,36.406C11.877,22.988,22.94,11.907,36.375,11.945z M14.604,29.851
	c0.08,0.057,0.16,0.112,0.24,0.169c0.243-0.147,0.506-0.271,0.724-0.448c0.485-0.396,0.939-0.833,1.421-1.233
	c2.892-2.401,6.04-3.103,9.513-1.355c1.175,0.591,2.351,1.207,3.445,1.933c4.835,3.209,9.569,6.578,14.483,9.66
	c3.888,2.441,8.124,4.187,12.677,5.071c0.703,0.137,1.02-0.047,1.152-0.675c0.184-0.855,0.291-1.729,0.522-2.57
	c0.153-0.553-0.051-0.758-0.521-0.868c-2.422-0.571-4.643-1.644-6.573-3.15c-3.532-2.756-6.964-5.644-10.386-8.538
	c-2.369-2.005-4.619-4.15-6.979-6.167c-3.205-2.735-6.961-3.24-10.958-2.44c-0.987,0.197-2.146,0.417-2.838,1.049
	c-2.38,2.176-4.267,4.762-5.395,7.83C14.924,28.684,14.778,29.274,14.604,29.851z M55.169,49.37
	c-0.092-0.098-0.182-0.194-0.273-0.292c-0.29,0.073-0.582,0.14-0.87,0.219c-3.088,0.846-6.222,1.586-9.427,1.426
	c-2.766-0.139-5.54-0.516-8.263-1.033c-4.708-0.895-9.07-2.855-13.48-4.666c-1.396-0.573-2.908-1.067-4.396-1.168
	c-1.99-0.136-3.083,1.877-2.137,3.596c2.224,4.042,5.379,7.145,9.458,9.302c0.327,0.172,0.701,0.254,1.239,0.444
	c-0.108-0.537-0.155-0.838-0.229-1.129c-0.54-2.146,0.336-3.045,2.535-2.591c0.306,0.063,0.613,0.125,0.917,0.204
	c5.291,1.365,10.636,2.005,16.087,1.182c2.883-0.436,5.701-0.994,7.506-3.651C54.261,50.584,54.724,49.982,55.169,49.37z
	 M29.876,14.768c0.016,0.131,0.032,0.26,0.048,0.391c0.229,0.038,0.456,0.101,0.685,0.112c1.188,0.066,2.376,0.108,3.563,0.18
	c4.343,0.263,8.175,1.824,11.121,5.02c2.289,2.479,4.213,5.293,6.367,7.899c0.952,1.153,2.004,2.248,3.141,3.218
	c0.854,0.729,1.883,0.625,2.605,0.036c0.79-0.644,0.917-1.257,0.514-2.452c-1.426-4.223-3.918-7.722-7.434-10.417
	c-5.098-3.911-10.875-5.564-17.292-4.712C32.077,14.191,30.982,14.522,29.876,14.768z"/>
</svg>
