<?xml version="1.0" encoding="utf-8"?>
<!-- Generator: Adobe Illustrator 15.0.2, SVG Export Plug-In  -->
<!DOCTYPE svg PUBLIC "-//W3C//DTD SVG 1.1//EN" "http://www.w3.org/Graphics/SVG/1.1/DTD/svg11.dtd" [
	<!ENTITY ns_flows "http://ns.adobe.com/Flows/1.0/">
]>
<svg version="1.1"
	 xmlns="http://www.w3.org/2000/svg" xmlns:xlink="http://www.w3.org/1999/xlink" xmlns:a="http://ns.adobe.com/AdobeSVGViewerExtensions/3.0/"
	 x="0px" y="0px" width="126px" height="126px" viewBox="-25.5 -11.5 126 126"
	 overflow="visible" enable-background="new -25.5 -11.5 126 126" xml:space="preserve">
<defs>
</defs>
<path fill="#4E59A4" d="M74,24.4c0-0.5-0.2-0.9-0.5-1.3L53.8,0.7l0,0c-0.1-0.1-0.3-0.2-0.399-0.3L53.3,0.3C53.2,0.2,53,0.2,52.9,0.1
	H52.8C52.6,0,52.5,0,52.3,0H4C1.8,0,0,1.8,0,4v94c0,2.2,1.8,4,4,4h66c2.2,0,4-1.8,4-4V24.7C74,24.6,74,24.5,74,24.4z M23.5,93.2
	c-1.5,0.5-4.4,1.2-7.2,1.2c-3.9,0-6.8-1-8.8-2.9s-3.1-4.7-3-7.9c0-7.199,5.3-11.3,12.3-11.3c2.8,0,4.9,0.5,6,1.101l-1,3.899
	c-1.2-0.5-2.7-0.899-5-0.899c-4.1,0-7.2,2.3-7.2,7c0,4.5,2.8,7.1,6.8,7.1c1.1,0,2-0.1,2.4-0.3v-4.5h-3.3v-3.8h8V93.2z M46,94.4
	L46,94.4L46,94.4L45.7,86.1C45.6,83.5,45.5,80.4,45.5,77.2h-0.1C44.7,80,43.8,83,43,85.6L40.4,94h-3.8l-2.3-8.4
	c-0.7-2.5-1.4-5.6-2-8.399h-0.1C32.1,80.1,32,83.5,31.8,86.1l-0.4,8.2h-4.5l1.4-21.6h6.5l2.1,7.2c0.7,2.5,1.3,5.199,1.8,7.699h0.1
	c0.601-2.5,1.3-5.399,2.101-7.8l2.3-7.2H49.6L50.8,94.2H46V94.4z M54.5,94.4V72.8h4.9v17.5H68V94.4H54.5z M70,67.9H4V4h46.3v20.5
	c0,1.1,0.9,2,2,2H70V67.9z M7.9,41.4L19.4,36v2.5l-8.7,3.8l0,0l8.7,3.8v2.5L7.9,43.5V41.4z M67.3,43.6l-11.5,5.3v-2.5l8.9-3.8l0,0
	l-8.9-3.8v-2.5l11.5,5.3V43.6z M37.4,28.7c-7.6,0-13.8,6.2-13.8,13.8s6.2,13.8,13.8,13.8s13.8-6.2,13.8-13.8S45,28.7,37.4,28.7z
	 M42.5,34.2l1-0.7c0,0-0.4-1.1-0.3-1.6c0.2-0.1,1.2,0.4,2,1.3C44.6,35.3,43.4,35,43.4,35S42.4,35,42.5,34.2z M34.2,46.3
	c-0.1,0.3-0.4,1-0.7,1.5c-0.2,0.5-0.4,0.7-0.7,0.9c-0.3,0.2-0.5,0.7-0.5,0.7l-0.1,1c0,0,0.1,0.9,0.3,1.2c0.2,0.3-0.7,2.1-0.7,2.1
	c-0.5-0.101-0.8-0.7-1-1.2c-0.2-0.5-0.4-0.8-0.4-1.3c0.1-0.6-0.5-0.8-0.7-1.2c-0.2-0.3-0.4-0.7-0.4-1s-0.7-0.7-0.7-0.7
	s-1.2-0.6-1.4-0.8c-0.2-0.2-0.4-1.3-0.4-1.7c-0.1-0.4,0.2-1.5,0.2-1.5s0.5-0.4,0.2-0.7C27,43.3,27,42.5,27,42.5l-0.6-0.6
	c0,0-0.4-0.6-0.5-0.9s0-0.5,0.1-0.8c0.1-0.3-0.1-0.9-0.1-1.2c2.3-5.6,6.2-7,6.2-7l0.3,1.3c0,0-0.7,0.2-1,0.1
	c-0.4-0.1-0.6-0.1-0.6-0.1L30.3,34c0,0-0.2,0.4-0.2,0.7c0,0.3,0.1,0.6,0.1,0.6S31,35.2,31,35s-0.1-0.4-0.1-0.4l-0.1-0.4
	c0,0,0.6-0.3,2-0.2c1.5,0.1,0.9,1.2,1.5,1.4c0.6,0.2-0.5,1.1-0.7,1.6c-0.2,0.5-0.6-0.6-0.6-0.6s0.4-0.4-0.2-0.6
	c-0.6-0.1-1,1.1-0.7,1.1c0.3-0.1,0.7,0.3,0.6,0.6c-0.1,0.3-0.1,0.3-0.4,1c-0.3,0.7-1,1.2-1,1.2s-0.3-0.2-0.1,0.2
	c0.2,0.4-0.1,1.2-0.1,1.5c0,0.2-0.7-0.4-0.9-1.1c-0.1-0.6-0.8-0.1-1.1,0c-0.2,0.1-0.7-0.1-0.8-0.4c-0.1-0.3-1.2,0.6-1.5,0.8
	c-0.3,0.2-0.2,0.7,0.3,0.4c0.5-0.2,0.9-0.1,0.8,0.4s-0.6,0.2-0.6,0.5c0.1,0.3,0.6,0.6,0.7,1.1c0.1,0.4,1.3,0.1,1.7-0.1
	c0.4-0.2,1.4-0.4,1.5,0.1c0.1,0.5,1.3,0.7,1.7,0.8s1.3,0.2,1.8,0.7C35.2,45,34.3,46,34.2,46.3z M37,31.9c-0.1,0.6-1,1.4-0.9,1.7
	c0.1,0.2,0,1.3-0.9,0.4c-0.9-0.9-1.7-1.2-1.7-1.9c0-0.1,0.9-0.3,0.9-0.5c1.3-1.2,3.4-1,3.6-0.7C37.7,31.4,37.1,31.2,37,31.9z
	 M47.7,36c0.8,1.4,2.1,5.2,1.6,5.9c-0.3-0.1-0.5-0.2-0.5-0.2h-1.6l1,1.2c0,0,0.5,0.7,1.2,0.7c-0.4,5.2-4.7,8.5-4.7,8.5
	c-0.7-0.7-0.3-1.2-0.3-1.2l0.199-1l0.101-1.7c0,0,0-1.7-1.601-0.9c-1.8,0.5-1,0.5-2.8,0.6s-1.5-3.6-1.5-3.6c0-5.6,4.3-1.4,4.3-1.4
	c2.5,1.6,2.801-1.4,2.801-1.4l1.8-0.7l0.2-0.8L47.6,38.9L45,37.8c0,0-0.3,0.9,0.4,1.9c0,0-0.2,1.2-0.801,0.9l-1.5-0.8
	c0,0-0.5-0.2-1.3,0.3s-2.2,0-2.2,0s0.101-0.8,1-1.3l0.7-0.5c0,0-0.2-0.8,0-1.5c0.2-0.7,0.5-0.1,1.101-0.6c0.699-0.5,1.1,1,2.1,0.8
	s0.5-0.3,1.2-0.7c0.7-0.3,1.2,0.7,1.2,0.7l1.3,0.2C47.8,37.1,47.6,35.6,47.7,36z"/>
</svg>
