<?xml version="1.0" encoding="utf-8"?>
<!-- Generator: Adobe Illustrator 15.0.2, SVG Export Plug-In  -->
<!DOCTYPE svg PUBLIC "-//W3C//DTD SVG 1.1//EN" "http://www.w3.org/Graphics/SVG/1.1/DTD/svg11.dtd" [
	<!ENTITY ns_flows "http://ns.adobe.com/Flows/1.0/">
]>
<svg version="1.1"
	 xmlns="http://www.w3.org/2000/svg" xmlns:xlink="http://www.w3.org/1999/xlink" xmlns:a="http://ns.adobe.com/AdobeSVGViewerExtensions/3.0/"
	 x="0px" y="0px" width="126px" height="126px" viewBox="-25.893 -12.481 126 126"
	 overflow="visible" enable-background="new -25.893 -12.481 126 126" xml:space="preserve">
<defs>
</defs>
<path fill="#4E59A4" d="M37.951,76.813c-1.034,0-1.735,0.101-2.102,0.201v6.638c0.434,0.102,0.967,0.135,1.701,0.135
	c2.702,0,4.372-1.369,4.372-3.67C41.921,78.049,40.486,76.813,37.951,76.813z"/>
<path fill="#4E59A4" d="M73.981,24.443c-0.006-0.468-0.153-0.93-0.476-1.295L53.837,0.684c-0.004-0.006-0.01-0.008-0.016-0.014
	c-0.117-0.131-0.252-0.239-0.396-0.334c-0.043-0.028-0.086-0.053-0.131-0.078C53.167,0.19,53.037,0.134,52.9,0.093
	c-0.037-0.011-0.07-0.026-0.107-0.036C52.643,0.022,52.49,0,52.333,0H4C1.795,0,0,1.795,0,4v94c0,2.207,1.795,4,4,4h66
	c2.207,0,4-1.793,4-4V24.667C74,24.592,73.988,24.518,73.981,24.443z M26.845,94.596c-1.568,0.534-4.537,1.268-7.506,1.268
	c-4.104,0-7.072-1.032-9.141-3.036c-2.069-1.935-3.203-4.869-3.17-8.172c0.034-7.475,5.472-11.744,12.845-11.744
	c2.902,0,5.138,0.565,6.238,1.1l-1.067,4.072c-1.235-0.535-2.769-0.97-5.238-0.97c-4.237,0-7.439,2.402-7.439,7.274
	c0,4.637,2.902,7.372,7.073,7.372c1.168,0,2.101-0.134,2.502-0.333v-4.704h-3.471v-3.972h8.375L26.845,94.596L26.845,94.596z
	 M44.89,85.32c-1.734,1.637-4.303,2.369-7.306,2.369c-0.667,0-1.268-0.033-1.734-0.1v8.041h-5.038V73.444
	c1.568-0.267,3.77-0.467,6.873-0.467c3.136,0,5.371,0.601,6.872,1.802c1.435,1.135,2.401,3.002,2.401,5.204
	S46.225,84.054,44.89,85.32z M61.102,95.63l-2.035-4.069c-0.834-1.567-1.368-2.735-2.001-4.037H57
	c-0.468,1.302-1.035,2.47-1.735,4.037l-1.867,4.069h-5.806l6.505-11.377l-6.271-11.108h5.839l1.967,4.104
	c0.668,1.367,1.168,2.469,1.703,3.735h0.065c0.534-1.435,0.968-2.437,1.535-3.735l1.901-4.104h5.805L60.3,84.123l6.673,11.51h-5.871
	V95.63z M4,67.917V4h46.333v20.466c0,1.104,0.896,2,2,2H70l0.002,41.451H4z"/>
<path fill="#4E59A4" d="M56.964,45.471l-0.959-3.632c-2.533,0.608-5.735,1.701-9.262,3.632H56.964z"/>
<path fill="#4E59A4" d="M57.405,47.136h-13.43c-4.074,2.655-8.44,6.451-12.637,11.931h29.219L57.405,47.136z"/>
<path fill="#4E59A4" d="M35.939,31.762c-0.485-1.312-1.017-2.748-1.542-4.181H17.728L15.74,35.11h16.227
	C32.572,33.656,34.027,32.452,35.939,31.762z"/>
<path fill="#4E59A4" d="M39.63,47.136H12.564L9.413,59.067h18.746C30.43,55.727,34.203,51.089,39.63,47.136z"/>
<path fill="#4E59A4" d="M55.539,40.072l-3.298-12.491h-7.129c-0.581,1.387-1.182,2.806-1.771,4.19
	c2.545,0.914,4.295,2.724,4.295,4.831c0,3.021-3.584,5.475-8.004,5.475c-3.826,0-7.019-1.844-7.808-4.296h-16.79l-2.033,7.689
	h29.105C45.886,43.1,50.341,41.122,55.539,40.072z"/>
<path fill="#4E59A4" d="M38.49,33.52c-1.909,0.332-3.322,1.458-3.322,2.805c0,1.608,1.999,2.908,4.462,2.908
	c2.466,0,4.463-1.3,4.463-2.908c0-1.354-1.426-2.483-3.348-2.808c1.771-4.121,4.93-11.524,5.563-13.402
	c0.276-0.74,0.437-1.539,0.437-2.375c0-3.744-3.037-6.781-6.781-6.781c-3.748,0-6.781,3.037-6.781,6.781
	c0,0.73,0.119,1.434,0.333,2.094C33.864,21.062,36.861,29.149,38.49,33.52z M42.345,36.325c0,0.977-1.215,1.77-2.715,1.77
	c-1.498,0-2.713-0.793-2.713-1.77c0-0.813,0.842-1.49,1.984-1.697c0.386,1.029,0.634,1.697,0.634,1.697s0.293-0.674,0.742-1.717
	C41.462,34.8,42.345,35.492,42.345,36.325z M39.962,13.439c2.39,0,4.326,1.937,4.326,4.328c0,2.388-1.937,4.322-4.326,4.322
	c-2.391,0-4.326-1.935-4.326-4.322C35.638,15.376,37.573,13.439,39.962,13.439z"/>
</svg>
