<?xml version="1.0" encoding="utf-8"?>
<!-- Generator: Adobe Illustrator 15.0.2, SVG Export Plug-In  -->
<!DOCTYPE svg PUBLIC "-//W3C//DTD SVG 1.1//EN" "http://www.w3.org/Graphics/SVG/1.1/DTD/svg11.dtd" [
	<!ENTITY ns_flows "http://ns.adobe.com/Flows/1.0/">
]>
<svg version="1.1"
	 xmlns="http://www.w3.org/2000/svg" xmlns:xlink="http://www.w3.org/1999/xlink" xmlns:a="http://ns.adobe.com/AdobeSVGViewerExtensions/3.0/"
	 x="0px" y="0px" width="126px" height="126px" viewBox="-26 -12 126 126"
	 overflow="visible" enable-background="new -26 -12 126 126" xml:space="preserve">
<defs>
</defs>
<path fill="#4E59A4" d="M73.98,24.442c-0.006-0.468-0.156-0.929-0.476-1.295L53.838,0.682c-0.004-0.005-0.01-0.008-0.016-0.013
	c-0.117-0.132-0.252-0.239-0.396-0.334c-0.043-0.028-0.086-0.054-0.131-0.078c-0.127-0.069-0.258-0.124-0.395-0.165
	c-0.037-0.011-0.07-0.027-0.109-0.035C52.643,0.021,52.488,0,52.334,0H4C1.795,0,0,1.794,0,4v94c0,2.205,1.795,4,4,4h66
	c2.205,0,4-1.795,4-4V24.666C74,24.591,73.988,24.517,73.98,24.442z M4,4h46.334v20.465c0,1.104,0.895,2,2,2H70l0.002,41.451H4V4z
	 M19.418,92.465H15.41v-7.641H8.791v7.641H4.76V74.203h4.031v7.018h6.619v-7.018h4.008V92.465z M35.236,77.672h-4.85v14.793h-4.033
	V77.672h-4.771v-3.469h13.654V77.672z M52.559,92.465l-0.264-6.99c-0.078-2.195-0.158-4.85-0.158-7.506h-0.078
	c-0.555,2.33-1.293,4.932-1.979,7.072l-2.16,7.125h-3.137l-1.898-7.07c-0.58-2.141-1.188-4.742-1.609-7.127h-0.053
	c-0.104,2.467-0.186,5.284-0.313,7.561l-0.318,6.937h-3.717l1.133-18.262h5.353L45.1,80.3c0.555,2.113,1.106,4.39,1.504,6.53h0.078
	c0.502-2.114,1.106-4.523,1.688-6.557l1.898-6.069h5.246l0.975,18.262L52.559,92.465L52.559,92.465z M70.674,92.465h-11.1V74.203
	h4.033v14.793h7.065L70.674,92.465L70.674,92.465z"/>
<polygon fill="#4E59A4" points="14.543,46.127 29.865,53.245 29.865,49.862 18.277,44.787 18.277,44.723 29.865,39.647 
	29.865,36.264 14.543,43.382 "/>
<polygon fill="#4E59A4" points="32.23,54.521 35.453,54.521 42.283,31.38 39.061,31.38 "/>
<polygon fill="#4E59A4" points="44.137,39.647 55.98,44.723 55.98,44.787 44.137,49.862 44.137,53.245 59.457,46.223 59.457,43.286 
	44.137,36.264 "/>
</svg>
