<?xml version="1.0" encoding="utf-8"?>
<!-- Generator: Adobe Illustrator 15.0.2, SVG Export Plug-In  -->
<!DOCTYPE svg PUBLIC "-//W3C//DTD SVG 1.1//EN" "http://www.w3.org/Graphics/SVG/1.1/DTD/svg11.dtd" [
	<!ENTITY ns_flows "http://ns.adobe.com/Flows/1.0/">
]>
<svg version="1.1"
	 xmlns="http://www.w3.org/2000/svg" xmlns:xlink="http://www.w3.org/1999/xlink" xmlns:a="http://ns.adobe.com/AdobeSVGViewerExtensions/3.0/"
	 x="0px" y="0px" width="126px" height="126px" viewBox="-26 -12 126 126"
	 overflow="visible" enable-background="new -26 -12 126 126" xml:space="preserve">
<defs>
</defs>
<path fill="#4E59A4" d="M73.98,24.443c-0.006-0.468-0.156-0.93-0.478-1.295L53.838,0.684c-0.006-0.006-0.012-0.008-0.016-0.014
	c-0.117-0.131-0.254-0.239-0.398-0.334c-0.043-0.028-0.086-0.053-0.131-0.078c-0.125-0.068-0.256-0.124-0.395-0.165
	c-0.037-0.011-0.07-0.026-0.107-0.036C52.643,0.021,52.488,0,52.332,0H4C1.795,0,0,1.795,0,4v94c0,2.206,1.795,4,4,4h66
	c2.205,0,4-1.794,4-4V24.667C74,24.592,73.988,24.518,73.98,24.443z M19.939,87.65c0,6.91-3.313,9.322-8.639,9.322
	c-1.26,0-2.916-0.216-3.996-0.576l0.613-4.428c0.756,0.252,1.727,0.434,2.807,0.434c2.305,0,3.744-1.045,3.744-4.824V72.316h5.471
	V87.65z M39.703,85.455c-1.873,1.764-4.645,2.555-7.883,2.555c-0.721,0-1.369-0.035-1.873-0.107v8.676h-5.436V72.641
	c1.693-0.289,4.068-0.504,7.416-0.504c3.383,0,5.796,0.647,7.416,1.943c1.548,1.225,2.591,3.238,2.591,5.615
	C41.934,82.07,41.143,84.087,39.703,85.455z M65.693,95.461c-1.691,0.576-4.896,1.368-8.101,1.368c-4.426,0-7.631-1.116-9.86-3.274
	c-2.232-2.089-3.457-5.256-3.42-8.82c0.035-8.062,5.901-12.67,13.856-12.67c3.134,0,5.545,0.611,6.731,1.188l-1.151,4.392
	c-1.332-0.576-2.987-1.043-5.651-1.043c-4.57,0-8.025,2.592-8.025,7.848c0,5.003,3.131,7.955,7.631,7.955
	c1.26,0,2.268-0.146,2.699-0.361v-5.074h-3.744v-4.283h9.035V95.461z M70,67.917h-8.489c-2.586-6.619-5.755-15.82-10.571-14.588
	c-5.413,1.385-8.232,13.523-8.47,14.588h-0.035c-0.232-1.142-3.209-15.168-10.872-22.834c-7.749-7.751-15.269,21.098-15.713,22.834
	H4V4h46.332v20.466c0,1.104,0.896,2,2,2H70V67.917z"/>
<path fill="#4E59A4" d="M32.215,76.275c-1.115,0-1.871,0.107-2.268,0.217v7.162c0.469,0.107,1.045,0.145,1.836,0.145
	c2.916,0,4.717-1.477,4.717-3.959C36.5,77.607,34.951,76.275,32.215,76.275z"/>
<ellipse fill="#4E59A4" cx="15.831" cy="33.009" rx="4.957" ry="4.952"/>
<path fill="#4E59A4" d="M48.746,34.997c-0.387-0.374-0.91-0.611-1.489-0.611h-0.858c-1.1,0-1.971,0.833-2.096,1.898
	c-2.658,0.276-4.625,1.235-4.625,2.384c-0.001,1.369,2.771,2.477,6.191,2.477c1,0,1.936-0.103,2.768-0.271
	c0.969,0.416,2.146,0.665,3.428,0.665c3.272,0,5.929-1.602,5.929-3.576c0-1.976-2.655-3.577-5.929-3.577
	C50.834,34.386,49.695,34.611,48.746,34.997z"/>
</svg>
