<?xml version="1.0" encoding="utf-8"?>
<!-- Generator: Adobe Illustrator 15.0.2, SVG Export Plug-In  -->
<!DOCTYPE svg PUBLIC "-//W3C//DTD SVG 1.1//EN" "http://www.w3.org/Graphics/SVG/1.1/DTD/svg11.dtd" [
	<!ENTITY ns_flows "http://ns.adobe.com/Flows/1.0/">
]>
<svg version="1.1"
	 xmlns="http://www.w3.org/2000/svg" xmlns:xlink="http://www.w3.org/1999/xlink" xmlns:a="http://ns.adobe.com/AdobeSVGViewerExtensions/3.0/"
	 x="0px" y="0px" width="126px" height="126px" viewBox="-25.893 -11.619 126 126"
	 overflow="visible" enable-background="new -25.893 -11.619 126 126" xml:space="preserve">
<defs>
</defs>
<path fill="#4E59A4" d="M73.98,24.444c-0.006-0.468-0.154-0.93-0.475-1.295L53.837,0.684c-0.004-0.006-0.01-0.008-0.017-0.014
	c-0.116-0.131-0.252-0.239-0.396-0.334c-0.043-0.028-0.086-0.053-0.131-0.078c-0.127-0.068-0.258-0.124-0.396-0.165
	c-0.037-0.011-0.069-0.026-0.106-0.036C52.642,0.022,52.489,0,52.333,0H4C1.795,0,0,1.795,0,4v94c0,2.206,1.795,4,4,4h66
	c2.207,0,4-1.794,4-4V24.667C74,24.592,73.988,24.518,73.98,24.444z M58.333,35.871c0,12.767-11.007,21.343-21.287,21.343
	c-0.137,0-13.623-0.495-13.623-18.198c0-8.714,5.413-13.416,10.507-13.416c0.094,0,0.188,0.001,0.282,0.005
	c-2.085,1.626-4.784,4.8-4.784,10.337c0,9,7.141,11.783,7.171,11.793c1.008,0.43,2.105,0.648,3.263,0.648
	c6.207,0,12.852-6.242,12.852-15.535c0-2.396-0.269-4.511-0.709-6.416c0.107,0.018,0.217,0.033,0.33,0.033h3.823
	C57.508,29.145,58.333,32.273,58.333,35.871z M47.474,17.518c0.983,0.559,1.94,1.204,2.859,1.923v2.237
	C49.516,20.046,48.54,18.664,47.474,17.518z M50.712,32.848c0,8.097-5.61,13.535-10.852,13.535c-0.083,0-0.163-0.009-0.245-0.012
	c2.103-1.595,4.886-4.762,4.886-10.383c0-9.046-7.146-11.785-7.219-11.812l-0.005,0.014l-0.001-0.03
	c-1.078-0.372-2.204-0.56-3.348-0.56c-6.063,0-12.507,5.403-12.507,15.416c0,7.584,2.307,12.315,5.146,15.274
	c-5.92-3.354-10.901-9.553-10.901-18.372c0-12.767,11.007-21.343,21.287-21.343v-1.327l0.092,1.327c0.441,0,0.89,0.017,1.341,0.051
	C42.982,15.346,50.712,19.982,50.712,32.848z M36.953,45.701c-1.323-0.657-5.525-3.254-5.525-9.759c0-6.425,4.215-9.067,5.516-9.729
	c1.288,0.63,5.559,3.214,5.559,9.776C42.501,42.444,38.233,45.061,36.953,45.701z M14.974,86.996c0,5.104-2.445,6.884-6.353,6.884
	c-0.957,0-2.18-0.159-2.977-0.425l0.452-3.27c0.558,0.187,1.276,0.319,2.073,0.319c1.701,0,2.765-0.771,2.765-3.535V75.673h4.04
	V86.996z M22.737,93.854c-2.047,0-4.067-0.558-5.077-1.116l0.824-3.322c1.063,0.558,2.765,1.116,4.492,1.116
	c1.861,0,2.844-0.771,2.844-1.94c0-1.116-0.851-1.755-3.004-2.499c-2.977-1.062-4.944-2.711-4.944-5.315
	c0-3.058,2.578-5.37,6.778-5.37c2.046,0,3.508,0.399,4.572,0.904l-0.904,3.242c-0.691-0.345-1.994-0.85-3.721-0.85
	c-1.754,0-2.605,0.823-2.605,1.728c0,1.143,0.983,1.647,3.322,2.524c3.164,1.17,4.625,2.818,4.625,5.343
	C29.94,91.302,27.654,93.854,22.737,93.854z M40.309,93.88c-5.29,0-8.427-4.014-8.427-9.144c0-5.369,3.456-9.383,8.719-9.383
	c5.502,0,8.506,4.12,8.506,9.091C49.107,90.345,45.572,93.88,40.309,93.88z M66.6,93.588h-4.253l-3.828-6.911
	c-1.063-1.914-2.259-4.227-3.109-6.326h-0.106c0.133,2.393,0.186,4.918,0.186,7.842v5.396h-3.721V75.673H56.5l3.721,6.565
	c1.063,1.887,2.101,4.119,2.924,6.14h0.054c-0.239-2.365-0.319-4.784-0.319-7.496v-5.209H66.6V93.588z M4,67.917V4h46.333v12.913
	c-3.54-2.464-7.654-3.955-11.72-4.274c-0.646-0.096-1.232-0.109-1.66-0.057v-0.005c-11.246,0-23.287,9.38-23.287,23.343
	c0,14.389,12.088,23.295,23.287,23.295V59.21c0.05,0.002,0.086,0.004,0.092,0.004c11.246,0,23.287-9.38,23.287-23.343
	c0-3.456-0.729-6.609-1.987-9.405H70l0.002,41.451H4z"/>
<path fill="#4E59A4" d="M40.521,78.569c-2.764,0-4.359,2.605-4.359,6.087c0,3.536,1.648,6.008,4.359,6.008
	c2.738,0,4.307-2.605,4.307-6.087C44.828,81.334,43.312,78.569,40.521,78.569z"/>
</svg>
