<?xml version="1.0" encoding="utf-8"?>
<!-- Generator: Adobe Illustrator 15.0.2, SVG Export Plug-In  -->
<!DOCTYPE svg PUBLIC "-//W3C//DTD SVG 1.1//EN" "http://www.w3.org/Graphics/SVG/1.1/DTD/svg11.dtd" [
	<!ENTITY ns_flows "http://ns.adobe.com/Flows/1.0/">
]>
<svg version="1.1"
	 xmlns="http://www.w3.org/2000/svg" xmlns:xlink="http://www.w3.org/1999/xlink" xmlns:a="http://ns.adobe.com/AdobeSVGViewerExtensions/3.0/"
	 x="0px" y="0px" width="126px" height="126px" viewBox="-26 -12.002 126 126"
	 overflow="visible" enable-background="new -26 -12.002 126 126" xml:space="preserve">
<defs>
</defs>
<path fill="#4E59A4" d="M38.447,77.096c-1.102,0-1.814,0.096-2.236,0.193V91.58c0.422,0.098,1.103,0.098,1.719,0.098
	c4.473,0.033,7.389-2.43,7.389-7.647C45.352,79.494,42.693,77.096,38.447,77.096z"/>
<path fill="#4E59A4" d="M17.51,77.029c-3.338,0-5.281,3.176-5.281,7.422c0,4.277,2.009,7.291,5.314,7.291
	c3.338,0,5.25-3.176,5.25-7.42C22.793,80.4,20.913,77.029,17.51,77.029z"/>
<path fill="#4E59A4" d="M73.979,24.443c-0.004-0.469-0.153-0.93-0.475-1.295L53.838,0.684c-0.006-0.006-0.012-0.008-0.016-0.014
	c-0.117-0.131-0.254-0.24-0.398-0.334c-0.043-0.029-0.086-0.053-0.131-0.078c-0.125-0.068-0.258-0.125-0.395-0.166
	c-0.037-0.01-0.07-0.025-0.107-0.035C52.643,0.022,52.488,0,52.332,0H4C1.793,0,0,1.795,0,4v94c0,2.205,1.793,4,4,4h66
	c2.205,0,4-1.795,4-4V24.666C74,24.592,73.988,24.518,73.979,24.443z M17.283,95.664c-6.48,0-10.272-4.895-10.272-11.115
	c0-6.547,4.181-11.439,10.63-11.439c6.707,0,10.369,5.023,10.369,11.05C28.01,91.32,23.668,95.664,17.283,95.664z M46.938,92.715
	c-2.301,1.912-5.799,2.818-10.078,2.818c-2.56,0-4.374-0.162-5.605-0.324V73.758c1.814-0.291,4.18-0.455,6.677-0.455
	c4.146,0,6.838,0.744,8.942,2.332c2.269,1.688,3.694,4.375,3.694,8.234C50.568,88.049,49.045,90.932,46.938,92.715z M59.158,95.633
	c-2.495,0-4.959-0.65-6.189-1.33l1.004-4.084c1.329,0.682,3.371,1.361,5.478,1.361c2.271,0,3.468-0.939,3.468-2.365
	c0-1.361-1.037-2.139-3.662-3.078c-3.629-1.264-5.995-3.272-5.995-6.449c0-3.727,3.111-6.578,8.265-6.578
	c2.463,0,4.276,0.519,5.574,1.103l-1.103,3.984c-0.875-0.421-2.431-1.035-4.57-1.035c-2.139,0-3.176,0.973-3.176,2.106
	c0,1.394,1.231,2.008,4.052,3.076c3.856,1.426,5.672,3.437,5.672,6.516C67.973,92.52,65.152,95.633,59.158,95.633z M70,67.916H4V4
	h46.332v20.465c0,1.105,0.896,2,2,2H70V67.916z"/>
<path fill="#4E59A4" d="M13.723,28.656v31.668h46.554V28.656H13.723z M57.436,57.475H41.703v-3.248h15.732V57.475L57.436,57.475z
	 M40.891,57.475H33.28v-3.248h7.611V57.475z M32.467,57.475h-7.105v-3.248h7.105V57.475z M24.55,57.475h-7.985v-3.248h7.985V57.475z
	 M41.703,37.478h15.732v3.654H41.703V37.478z M41.703,41.945h15.732v3.316H41.703V41.945z M41.703,46.074h15.732v3.652H41.703
	V46.074z M57.436,50.539v2.875H41.703v-2.875H57.436z M33.279,31.904h7.612v4.764h-7.612V31.904z M33.279,37.478h7.612v3.654h-7.612
	V37.478z M33.279,41.945h7.612v3.316h-7.612V41.945z M33.279,46.074h7.612v3.652h-7.612V46.074z M40.891,50.539v2.875H33.28v-2.875
	H40.891z M25.361,37.478h7.105v3.654h-7.105V37.478z M25.361,41.945h7.105v3.316h-7.105V41.945z M25.361,46.074h7.105v3.652h-7.105
	V46.074z M32.467,50.539v2.875h-7.105v-2.875H32.467z M16.564,31.904h7.985v4.764h-7.985V31.904z M16.564,37.478h7.985v3.654h-7.985
	V37.478z M16.564,41.945h7.985v3.316h-7.985V41.945z M16.564,46.074h7.985v3.652h-7.985V46.074z M24.55,50.539v2.875h-7.985v-2.875
	H24.55z"/>
</svg>
