<?xml version="1.0" encoding="utf-8"?>
<!-- Generator: Adobe Illustrator 15.0.2, SVG Export Plug-In  -->
<!DOCTYPE svg PUBLIC "-//W3C//DTD SVG 1.1//EN" "http://www.w3.org/Graphics/SVG/1.1/DTD/svg11.dtd" [
	<!ENTITY ns_flows "http://ns.adobe.com/Flows/1.0/">
]>
<svg version="1.1"
	 xmlns="http://www.w3.org/2000/svg" xmlns:xlink="http://www.w3.org/1999/xlink" xmlns:a="http://ns.adobe.com/AdobeSVGViewerExtensions/3.0/"
	 x="0px" y="0px" width="126px" height="126px" viewBox="-26 -12.002 126 126"
	 overflow="visible" enable-background="new -26 -12.002 126 126" xml:space="preserve">
<defs>
</defs>
<path fill="#4E59A4" d="M37.959,76.818c-1.144,0-1.884,0.102-2.321,0.201v14.832c0.438,0.102,1.144,0.102,1.782,0.102
	c4.643,0.033,7.668-2.523,7.668-7.938C45.122,79.307,42.363,76.818,37.959,76.818z"/>
<path fill="#4E59A4" d="M16.229,76.75c-3.464,0-5.482,3.299-5.482,7.703c0,4.439,2.085,7.566,5.516,7.566
	c3.464,0,5.448-3.297,5.448-7.701C21.711,80.248,19.761,76.75,16.229,76.75z"/>
<path fill="#4E59A4" d="M73.98,24.443c-0.006-0.469-0.154-0.93-0.476-1.295L53.838,0.684c-0.004-0.006-0.012-0.008-0.016-0.014
	c-0.117-0.131-0.252-0.24-0.396-0.334c-0.043-0.029-0.088-0.053-0.133-0.078c-0.125-0.068-0.256-0.125-0.395-0.166
	c-0.035-0.01-0.07-0.025-0.107-0.035C52.643,0.022,52.49,0,52.334,0H4C1.795,0,0,1.795,0,4v94c0,2.205,1.795,4,4,4h66
	c2.205,0,4-1.795,4-4V24.666C74,24.592,73.988,24.518,73.98,24.443z M15.994,96.088c-6.727,0-10.662-5.076-10.662-11.535
	c0-6.795,4.339-11.873,11.031-11.873c6.963,0,10.763,5.215,10.763,11.471C27.126,91.582,22.619,96.088,15.994,96.088z M46.77,93.027
	c-2.387,1.986-6.02,2.928-10.458,2.928c-2.656,0-4.54-0.168-5.818-0.338V73.354c1.883-0.304,4.339-0.472,6.928-0.472
	c4.306,0,7.097,0.773,9.283,2.423c2.354,1.748,3.834,4.539,3.834,8.543C50.537,88.186,48.956,91.18,46.77,93.027z M68.667,77.355
	h-6.188v18.365h-5.145V77.355h-6.088V73.05h17.421V77.355z M69.952,67.916H4V4h46.334v20.465c0,1.105,0.895,2,2,2H70L69.952,67.916z
	"/>
<path fill="#4E59A4" d="M12.1,18.168h28.263c1.104,0,2-0.896,2-2c0-1.105-0.896-2-2-2H12.1c-1.105,0-2,0.895-2,2
	C10.1,17.271,10.994,18.168,12.1,18.168z"/>
<path fill="#4E59A4" d="M12.1,31.334h28.263c1.104,0,2-0.896,2-2c0-1.105-0.896-2-2-2H12.1c-1.105,0-2,0.895-2,2
	C10.1,30.437,10.994,31.334,12.1,31.334z"/>
<path fill="#4E59A4" d="M10.1,42.49c0,1.104,0.895,2,2,2h46.234c1.104,0,2-0.896,2-2c0-1.105-0.896-2-2-2H12.1
	C10.994,40.49,10.1,41.385,10.1,42.49z"/>
<path fill="#4E59A4" d="M58.334,53.668H12.1c-1.105,0-2,0.895-2,2c0,1.104,0.895,2,2,2h46.234c1.104,0,2-0.896,2-2
	C60.334,54.562,59.438,53.668,58.334,53.668z"/>
</svg>
