<?xml version="1.0" encoding="utf-8"?>
<!-- Generator: Adobe Illustrator 15.0.2, SVG Export Plug-In  -->
<!DOCTYPE svg PUBLIC "-//W3C//DTD SVG 1.1//EN" "http://www.w3.org/Graphics/SVG/1.1/DTD/svg11.dtd" [
	<!ENTITY ns_flows "http://ns.adobe.com/Flows/1.0/">
]>
<svg version="1.1"
	 xmlns="http://www.w3.org/2000/svg" xmlns:xlink="http://www.w3.org/1999/xlink" xmlns:a="http://ns.adobe.com/AdobeSVGViewerExtensions/3.0/"
	 x="0px" y="0px" width="126px" height="126px" viewBox="-26 -12 126 126"
	 overflow="visible" enable-background="new -26 -12 126 126" xml:space="preserve">
<defs>
</defs>
<path fill="#4E59A4" d="M35.508,76.796c-1.225,0-2.016,0.108-2.484,0.216v15.874c0.469,0.108,1.225,0.108,1.908,0.108
	c4.966,0.035,8.207-2.699,8.207-8.495C43.174,79.459,40.223,76.796,35.508,76.796z"/>
<path fill="#4E59A4" d="M14.303,76.725c-1.115,0-1.871,0.107-2.268,0.215v7.164c0.469,0.107,1.045,0.145,1.834,0.145
	c2.918,0,4.717-1.477,4.717-3.96C18.586,78.057,17.037,76.725,14.303,76.725z"/>
<path fill="#4E59A4" d="M73.98,24.443c-0.006-0.468-0.154-0.93-0.476-1.295L53.838,0.684c-0.004-0.006-0.012-0.008-0.016-0.014
	c-0.117-0.131-0.252-0.239-0.396-0.334c-0.043-0.028-0.088-0.053-0.133-0.078c-0.125-0.068-0.256-0.124-0.395-0.165
	c-0.035-0.011-0.07-0.026-0.107-0.036C52.643,0.021,52.488,0,52.334,0H4C1.795,0,0,1.795,0,4v94c0,2.206,1.795,4,4,4h66
	c2.205,0,4-1.794,4-4V24.667C74,24.592,73.988,24.518,73.98,24.443z M21.789,85.902c-1.871,1.764-4.643,2.557-7.883,2.557
	c-0.719,0-1.369-0.037-1.871-0.107v8.674H6.6V73.088c1.691-0.287,4.068-0.504,7.416-0.504c3.383,0,5.795,0.648,7.414,1.943
	c1.549,1.225,2.59,3.24,2.59,5.615C24.02,82.52,23.23,84.535,21.789,85.902z M44.936,94.146c-2.553,2.123-6.44,3.131-11.19,3.131
	c-2.844,0-4.859-0.18-6.229-0.359v-23.83c2.016-0.322,4.645-0.504,7.416-0.504c4.605,0,7.593,0.828,9.934,2.592
	c2.521,1.872,4.104,4.859,4.104,9.143C48.969,88.963,47.277,92.166,44.936,94.146z M67.402,77.264h-9.324v5.543h8.711v4.465h-8.711
	v9.754h-5.506v-24.26h14.83V77.264z M4,67.917V4h46.334v20.466c0,1.104,0.895,2,2,2H70l0.002,41.451H4z"/>
<path fill="#4E59A4" d="M57.52,42.988c-0.117-0.011-2.936-0.268-7.262-0.268c-1.355,0-2.721,0.026-4.068,0.077
	c-8.543-6.411-15.541-12.827-19.287-16.423c0.068-0.396,0.115-0.709,0.137-0.949c0.494-5.216-0.055-8.737-1.627-10.466
	c-1.029-1.13-2.541-1.506-4.117-1.075c-0.979,0.256-2.791,1.206-3.371,3.139c-0.641,2.136,0.389,4.729,3.094,7.736
	c0.043,0.045,0.961,1.007,2.629,2.637c-1.084,5.169-3.922,16.324-5.299,21.68c-3.234,1.728-5.928,3.81-8.014,6.197l-0.137,0.156
	l-0.088,0.188c-0.215,0.451-1.242,2.794-0.471,4.676c0.352,0.855,1.012,1.48,1.908,1.809l0.24,0.064c0,0,0.217,0.047,0.598,0.047
	c1.668,0,5.787-0.877,7.996-9.018l0.535-2.062c7.711-3.748,17.35-4.957,24.336-5.294c3.594,2.665,7.17,5.113,10.635,7.281L56,53.186
	c0.168,0.086,1.688,0.836,3.467,0.838l0,0c2.543,0,4.4-1.561,5.092-4.28l0.035-0.186c0.193-1.554-0.197-2.955-1.129-4.05
	C61.502,43.2,57.848,42.999,57.52,42.988z M12.447,59.212c-0.016-0.019-0.023-0.036-0.031-0.056
	c-0.166-0.399,0.033-1.368,0.326-2.078c1.258-1.406,2.768-2.697,4.51-3.859C15.555,58.711,13.088,59.186,12.447,59.212z
	 M23.219,22.721L23.219,22.721c-2.605-2.9-2.566-4.338-2.426-4.822c0.23-0.809,1.268-1.115,1.277-1.118
	c0.523-0.142,0.84-0.114,1.123,0.196c0.639,0.702,1.188,2.821,0.971,6.707C23.549,23.066,23.219,22.721,23.219,22.721z
	 M21.873,47.42l0.045-0.172l-0.006,0.002c1.305-5.11,3.186-12.592,4.268-17.398l0.039,0.037l0.004-0.023
	c3.5,3.296,8.867,8.117,15.292,13.131L41.443,43l0.106,0.08C35.496,43.592,28.266,44.785,21.873,47.42z M61.627,49.096
	c-0.461,1.694-1.348,1.926-2.16,1.926l0,0c-0.943,0-1.852-0.393-2.059-0.488c-2.359-1.479-4.773-3.09-7.209-4.814
	c0.02,0,0.037,0,0.059,0c4.176,0,6.957,0.253,7.066,0.261c0.697,0.026,2.904,0.352,3.855,1.47
	C61.553,47.889,61.695,48.413,61.627,49.096z"/>
</svg>
