<?xml version="1.0" encoding="utf-8"?>
<!-- Generator: Adobe Illustrator 15.0.2, SVG Export Plug-In  -->
<!DOCTYPE svg PUBLIC "-//W3C//DTD SVG 1.1//EN" "http://www.w3.org/Graphics/SVG/1.1/DTD/svg11.dtd" [
	<!ENTITY ns_flows "http://ns.adobe.com/Flows/1.0/">
]>
<svg version="1.1"
	 xmlns="http://www.w3.org/2000/svg" xmlns:xlink="http://www.w3.org/1999/xlink" xmlns:a="http://ns.adobe.com/AdobeSVGViewerExtensions/3.0/"
	 x="0px" y="0px" width="126px" height="126px" viewBox="-26 -12 126 126"
	 overflow="visible" enable-background="new -26 -12 126 126" xml:space="preserve">
<defs>
</defs>
<path fill="#4E59A4" d="M14.139,76.686c-1.051,0-1.764,0.103-2.137,0.205v6.758c0.441,0.103,0.984,0.136,1.732,0.136
	c2.75,0,4.449-1.394,4.449-3.735C18.184,77.941,16.723,76.686,14.139,76.686z"/>
<polygon fill="#4E59A4" points="51.494,26.276 51.502,26.279 51.502,26.276 "/>
<path fill="#4E59A4" d="M73.98,24.443c-0.006-0.468-0.156-0.93-0.476-1.295L53.838,0.684c-0.004-0.006-0.01-0.008-0.016-0.014
	c-0.117-0.131-0.252-0.239-0.396-0.334c-0.043-0.028-0.086-0.053-0.131-0.078C53.168,0.19,53.037,0.134,52.9,0.093
	c-0.037-0.011-0.07-0.026-0.109-0.036C52.643,0.021,52.488,0,52.334,0H4C1.795,0,0,1.795,0,4v94c0,2.206,1.795,4,4,4h66
	c2.205,0,4-1.794,4-4V24.667C74,24.592,73.988,24.518,73.98,24.443z M21.205,85.346c-1.766,1.664-4.381,2.412-7.438,2.412
	c-0.68,0-1.293-0.035-1.766-0.104v8.186H6.872V73.256c1.596-0.271,3.838-0.477,6.996-0.477c3.191,0,5.469,0.611,6.996,1.835
	c1.459,1.153,2.445,3.056,2.445,5.298C23.311,82.152,22.564,84.057,21.205,85.346z M45.559,95.84h-5.434l-4.891-8.83
	c-1.361-2.445-2.854-5.398-3.977-8.082l-0.1,0.033c0.137,3.023,0.203,6.249,0.203,9.984v6.895h-4.754V72.95h6.045l4.756,8.388
	c1.356,2.412,2.717,5.264,3.733,7.846h0.103c-0.341-3.022-0.441-6.113-0.441-9.543v-6.689h4.757V95.84L45.559,95.84z M69.164,94.787
	c-1.596,0.543-4.619,1.291-7.643,1.291c-4.176,0-7.201-1.053-9.306-3.092c-2.104-1.969-3.262-4.957-3.228-8.319
	c0.033-7.606,5.57-11.954,13.074-11.954c2.955,0,5.232,0.576,6.353,1.12l-1.086,4.144c-1.259-0.543-2.82-0.984-5.334-0.984
	c-4.312,0-7.572,2.445-7.572,7.402c0,4.722,2.955,7.506,7.201,7.506c1.188,0,2.14-0.135,2.547-0.34v-4.789h-3.532V82.73h8.524
	L69.164,94.787L69.164,94.787z M4,67.917V4h46.334v14.387h1.25v7.889h7.807v0.19H70l0.002,41.451H4z"/>
<polygon fill="#4E59A4" points="20.135,49.942 27.885,49.942 27.885,42.054 20.078,42.054 20.078,34.165 27.885,34.165 
	27.885,26.276 20.078,26.276 20.078,18.387 12.189,18.387 12.189,26.276 19.996,26.276 19.996,34.165 12.189,34.165 12.189,42.054 
	19.996,42.054 19.996,49.942 12.248,49.942 12.248,57.832 20.055,57.832 20.055,65.721 27.941,65.721 27.941,57.832 20.135,57.832 
	"/>
<polygon fill="#4E59A4" points="35.889,49.942 43.639,49.942 43.639,42.054 35.832,42.054 35.832,34.165 43.639,34.165 
	43.639,26.276 35.832,26.276 35.832,18.387 27.941,18.387 27.941,26.276 35.748,26.276 35.748,34.165 27.941,34.165 27.941,42.054 
	35.748,42.054 35.748,49.942 28,49.942 28,57.832 35.807,57.832 35.807,65.721 43.695,65.721 43.695,57.832 35.889,57.832 "/>
<path fill="#4E59A4" d="M43.695,26.276h7.799c-0.684-0.318-1.16-1.006-1.16-1.81v-6.079h-6.639V26.276z"/>
<path fill="#4E59A4" d="M51.502,26.279v7.886h-7.807v7.889h7.807v7.888h-7.75v7.889h7.809v7.89h7.888v-7.89h-7.806v-7.889h7.748
	v-7.888h-7.807v-7.889h7.807v-7.699h-7.057C52.035,26.466,51.756,26.396,51.502,26.279z"/>
</svg>
