<?xml version="1.0" encoding="utf-8"?>
<!-- Generator: Adobe Illustrator 15.0.2, SVG Export Plug-In  -->
<!DOCTYPE svg PUBLIC "-//W3C//DTD SVG 1.1//EN" "http://www.w3.org/Graphics/SVG/1.1/DTD/svg11.dtd" [
	<!ENTITY ns_flows "http://ns.adobe.com/Flows/1.0/">
]>
<svg version="1.1"
	 xmlns="http://www.w3.org/2000/svg" xmlns:xlink="http://www.w3.org/1999/xlink" xmlns:a="http://ns.adobe.com/AdobeSVGViewerExtensions/3.0/"
	 x="0px" y="0px" width="126px" height="126px" viewBox="-26 -12 126 126"
	 overflow="visible" enable-background="new -26 -12 126 126" xml:space="preserve">
<defs>
</defs>
<polygon points="51.494,26.276 51.502,26.279 51.502,26.276 "/>
<path fill="#4E59A4" d="M73.98,24.443c-0.006-0.468-0.156-0.93-0.476-1.295L53.838,0.684c-0.004-0.006-0.01-0.008-0.016-0.014
	c-0.117-0.131-0.252-0.239-0.396-0.334c-0.043-0.028-0.086-0.053-0.131-0.078C53.168,0.19,53.037,0.134,52.9,0.093
	c-0.037-0.011-0.07-0.026-0.109-0.036C52.643,0.021,52.488,0,52.334,0H4C1.795,0,0,1.795,0,4v94c0,2.206,1.795,4,4,4h66
	c2.205,0,4-1.794,4-4V24.667C74,24.592,73.988,24.518,73.98,24.443z M4,98V4h46v22h20l0.002,72H4z"/>
<polygon fill="#4E59A4" points="20.135,58.888 27.885,58.888 27.885,51 20.078,51 20.078,43.111 27.885,43.111 27.885,35.222 
	20.078,35.222 20.078,27.333 12.189,27.333 12.189,35.222 19.996,35.222 19.996,43.111 12.189,43.111 12.189,51 19.996,51 
	19.996,58.888 12.248,58.888 12.248,66.778 20.055,66.778 20.055,74.667 27.941,74.667 27.941,66.778 20.135,66.778 "/>
<polygon fill="#4E59A4" points="35.889,58.888 43.639,58.888 43.639,51 35.832,51 35.832,43.111 43.639,43.111 43.639,35.222 
	35.832,35.222 35.832,27.333 27.941,27.333 27.941,35.222 35.748,35.222 35.748,43.111 27.941,43.111 27.941,51 35.748,51 
	35.748,58.888 28,58.888 28,66.778 35.807,66.778 35.807,74.667 43.695,74.667 43.695,66.778 35.889,66.778 "/>
<polygon fill="#4E59A4" points="51.643,58.888 59.391,58.888 59.391,51 51.584,51 51.584,43.111 59.391,43.111 59.391,36.417 
	59.391,35.225 51.502,35.225 51.502,43.111 43.695,43.111 43.695,51 51.502,51 51.502,58.888 43.752,58.888 43.752,66.777 
	51.561,66.777 51.561,74.667 59.448,74.667 59.448,66.777 51.643,66.777 "/>
<rect x="43.695" y="27.333" fill="#4E59A4" width="7.889" height="7.889"/>
</svg>
