<?xml version="1.0" encoding="utf-8"?>
<!-- Generator: Adobe Illustrator 15.0.2, SVG Export Plug-In  -->
<!DOCTYPE svg PUBLIC "-//W3C//DTD SVG 1.1//EN" "http://www.w3.org/Graphics/SVG/1.1/DTD/svg11.dtd" [
	<!ENTITY ns_flows "http://ns.adobe.com/Flows/1.0/">
]>
<svg version="1.1"
	 xmlns="http://www.w3.org/2000/svg" xmlns:xlink="http://www.w3.org/1999/xlink" xmlns:a="http://ns.adobe.com/AdobeSVGViewerExtensions/3.0/"
	 x="0px" y="0px" width="126px" height="126px" viewBox="-25.893 -11.787 126 126"
	 overflow="visible" enable-background="new -25.893 -11.787 126 126" xml:space="preserve">
<defs>
</defs>
<path fill="#4E59A4" d="M17.733,77.815c-1.146,0-1.796,0.062-2.137,0.155V83.7h1.858c2.354,0,3.748-1.177,3.748-3.004
	C21.202,78.807,19.901,77.815,17.733,77.815z"/>
<path fill="#4E59A4" d="M73.98,24.443c-0.006-0.468-0.154-0.93-0.475-1.295L53.837,0.684c-0.004-0.006-0.01-0.008-0.017-0.014
	c-0.116-0.131-0.252-0.239-0.396-0.334c-0.043-0.028-0.086-0.053-0.131-0.078c-0.127-0.068-0.258-0.124-0.396-0.165
	c-0.037-0.011-0.069-0.026-0.106-0.036C52.642,0.022,52.489,0,52.333,0H4C1.795,0,0,1.795,0,4v94c0,2.206,1.795,4,4,4h66
	c2.207,0,4-1.794,4-4V24.667C74,24.592,73.988,24.518,73.98,24.443z M21.853,95.316c-0.31-0.619-0.836-2.292-1.425-4.863
	c-0.588-2.633-1.487-3.314-3.438-3.345h-1.394v8.208h-4.677V74.718c1.518-0.248,3.748-0.434,6.288-0.434
	c3.097,0,5.266,0.465,6.752,1.642c1.27,0.991,1.952,2.479,1.952,4.398c0,2.633-1.89,4.461-3.686,5.111v0.093
	c1.456,0.589,2.261,1.951,2.788,3.872c0.65,2.385,1.27,5.11,1.673,5.916H21.853z M44.31,92.838
	c-2.199,1.828-5.576,2.695-9.665,2.695c-2.447,0-4.213-0.155-5.359-0.31V74.749c1.734-0.279,3.996-0.465,6.35-0.465
	c3.996,0,6.597,0.743,8.58,2.23c2.168,1.61,3.531,4.182,3.531,7.867C47.748,88.378,46.292,91.135,44.31,92.838z M63.609,78.311
	h-8.023v4.771h7.496v3.841h-7.496v8.395h-4.709V74.439h12.732V78.311z M4,67.917V4h46.333v10.377
	c-2.861,0.832-4.953,3.467-4.953,6.596c0,0.294,0.024,0.583,0.061,0.868L24.222,32.535c-1.203-1.035-2.765-1.664-4.476-1.664
	c-3.796,0-6.874,3.077-6.874,6.873c0,3.797,3.077,6.873,6.874,6.873c1.686,0,3.229-0.609,4.424-1.617l21.237,10.957
	c-0.014,0.185-0.027,0.369-0.027,0.557c0,3.797,3.076,6.873,6.873,6.873s6.873-3.076,6.873-6.873c0-3.271-2.289-6.004-5.35-6.698
	V27.671c0.948-0.215,1.808-0.644,2.562-1.206H70l0.002,41.451H4z M26.503,36.517l21-10.583c0.497,0.477,1.067,0.877,1.691,1.188
	v21.243c-0.716,0.357-1.36,0.832-1.908,1.404L26.492,39.042c0.081-0.421,0.126-0.854,0.126-1.298
	C26.619,37.324,26.575,36.916,26.503,36.517z"/>
<path fill="#4E59A4" d="M36.132,77.908c-1.021,0-1.734,0.093-2.137,0.186v13.66c0.402,0.094,1.084,0.094,1.642,0.094
	c4.306,0.03,7.125-2.323,7.125-7.311C42.761,80.2,40.22,77.908,36.132,77.908z"/>
</svg>
