<?xml version="1.0" encoding="utf-8"?>
<!-- Generator: Adobe Illustrator 15.0.2, SVG Export Plug-In  -->
<!DOCTYPE svg PUBLIC "-//W3C//DTD SVG 1.1//EN" "http://www.w3.org/Graphics/SVG/1.1/DTD/svg11.dtd" [
	<!ENTITY ns_flows "http://ns.adobe.com/Flows/1.0/">
]>
<svg version="1.1"
	 xmlns="http://www.w3.org/2000/svg" xmlns:xlink="http://www.w3.org/1999/xlink" xmlns:a="http://ns.adobe.com/AdobeSVGViewerExtensions/3.0/"
	 x="0px" y="0px" width="126px" height="126px" viewBox="-25.893 -12.481 126 126"
	 overflow="visible" enable-background="new -25.893 -12.481 126 126" xml:space="preserve">
<defs>
</defs>
<path fill="#4E59A4" d="M73.981,24.443c-0.006-0.468-0.153-0.93-0.476-1.295L53.837,0.684c-0.004-0.006-0.01-0.008-0.016-0.014
	c-0.117-0.131-0.252-0.239-0.396-0.334c-0.043-0.028-0.086-0.053-0.131-0.078C53.167,0.19,53.037,0.134,52.9,0.093
	c-0.037-0.011-0.07-0.026-0.107-0.036C52.643,0.022,52.49,0,52.333,0H4C1.795,0,0,1.795,0,4v94c0,2.207,1.795,4,4,4h66
	c2.207,0,4-1.793,4-4V24.667C74,24.592,73.988,24.518,73.981,24.443z M4.611,87.917c0.923,0.486,2.402,0.972,3.905,0.972
	c1.616,0,2.472-0.67,2.472-1.688c0-0.971-0.74-1.523-2.611-2.171c-2.589-0.926-4.297-2.357-4.297-4.623
	c0-2.656,2.241-4.665,5.891-4.665c1.779,0,3.049,0.346,3.975,0.784l-0.786,2.82c-0.6-0.301-1.732-0.742-3.234-0.742
	c-1.526,0-2.265,0.718-2.265,1.504c0,0.993,0.855,1.432,2.888,2.196c2.75,1.015,4.02,2.446,4.02,4.642c0,2.611-1.986,4.83-6.26,4.83
	c-1.78,0-3.535-0.486-4.414-0.971L4.611,87.917z M30.308,94.225c-2.217-0.647-4.066-1.342-6.167-2.195
	c-0.346-0.14-0.717-0.209-1.063-0.231c-3.535-0.231-6.816-2.818-6.816-7.924c0-4.689,2.958-8.181,7.625-8.181
	c4.735,0,7.347,3.605,7.347,7.88c0,3.534-1.64,6.029-3.674,6.954v0.093c1.18,0.346,2.52,0.647,3.743,0.877L30.308,94.225z
	 M27.513,83.712c0-2.865-1.339-5.223-3.744-5.223c-2.403,0-3.789,2.357-3.789,5.292c0,2.958,1.41,5.221,3.789,5.221
	C26.149,89.002,27.513,86.761,27.513,83.712z M33.578,75.971h3.51v12.616h6.193v2.956h-9.703V75.971z M48.875,77.103
	c0,0.972-0.715,1.758-1.892,1.758c-1.11,0-1.826-0.786-1.826-1.758c0-0.992,0.738-1.755,1.871-1.755
	C48.161,75.348,48.853,76.111,48.875,77.103z M45.249,91.543V80.246h3.515v11.298H45.249z M55.512,77.196v3.05h2.518v2.588h-2.518
	v4.09c0,1.362,0.347,1.987,1.385,1.987c0.486,0,0.719-0.022,1.039-0.093l0.026,2.656c-0.44,0.162-1.295,0.302-2.266,0.302
	c-1.132,0-2.08-0.394-2.656-0.971c-0.647-0.671-0.971-1.756-0.971-3.352v-4.62h-1.501v-2.588h1.501v-2.102L55.512,77.196z
	 M62.654,87.015c0.094,1.457,1.55,2.149,3.19,2.149c1.2,0,2.171-0.162,3.119-0.485l0.46,2.38c-1.155,0.484-2.563,0.717-4.087,0.717
	c-3.838,0-6.031-2.219-6.031-5.753c0-2.865,1.779-6.031,5.708-6.031c3.649,0,5.034,2.842,5.034,5.638
	c0,0.601-0.068,1.132-0.113,1.386H62.654z M66.789,84.614c0-0.856-0.368-2.288-1.986-2.288c-1.479,0-2.077,1.362-2.171,2.288H66.789
	z M4,67.917V4h46.333v20.466c0,1.104,0.896,2,2,2H70l0.002,41.451H4z"/>
<path fill="#4E59A4" d="M54.307,18.8c-1.318-1.175-2.84-1.136-4.405-0.28H22.278c-2.435,0-4.416,1.981-4.416,4.416v28.877
	c0,2.435,1.981,4.416,4.416,4.416h17.108c0.178,1.456,0.434,2.674,0.745,3.396l0.269-0.147c-0.581-1.804-0.817-4.169-0.713-6.897
	c0.155-4.169,1.115-9.198,2.888-14.438c2.995-7.912,7.151-14.26,10.955-17.291c-3.467,3.13-8.158,13.264-9.563,17.017
	c-1.572,4.202-2.687,8.146-3.358,11.925c1.158-3.543,4.905-5.065,4.905-5.065s1.838-2.266,3.985-5.504
	c-1.286,0.293-3.398,0.796-4.105,1.093c-1.044,0.438-1.325,0.587-1.325,0.587s3.381-2.058,6.281-2.991
	C54.338,31.629,58.684,22.704,54.307,18.8z M40.068,39.985c0.055,0.209,0.104,0.405,0.143,0.572
	c0.093,0.395,0.143,0.651,0.143,0.651s-0.032-0.125-0.168-0.515c-0.024-0.075-0.054-0.157-0.087-0.254
	c-0.016-0.04-0.035-0.088-0.058-0.139c-0.239-0.556-0.9-1.729-1.192-2.24c-0.249,0.734-0.469,1.421-0.652,2.043
	c0.841,1.538,1.354,4.173,1.354,4.173s-0.045-0.17-0.257-0.767c-0.187-0.527-1.121-2.163-1.342-2.546
	c-0.378,1.397-0.53,2.34-0.394,2.57c0.263,0.444,0.515,1.211,0.735,2.062c0.496,1.912,0.843,4.24,0.843,4.24
	s0.011,0.155,0.031,0.392c-0.052,1.181-0.042,2.393,0.015,3.551H22.278c-1.084,0-1.965-0.881-1.965-1.965V22.936
	c0-1.083,0.881-1.965,1.965-1.965h24.708c-3.564,3.948-6.833,10.93-7.862,16.299C39.534,38.105,39.856,39.171,40.068,39.985z"/>
</svg>
