<?xml version="1.0" encoding="utf-8"?>
<!-- Generator: Adobe Illustrator 15.0.2, SVG Export Plug-In  -->
<!DOCTYPE svg PUBLIC "-//W3C//DTD SVG 1.1//EN" "http://www.w3.org/Graphics/SVG/1.1/DTD/svg11.dtd" [
	<!ENTITY ns_flows "http://ns.adobe.com/Flows/1.0/">
]>
<svg version="1.1"
	 xmlns="http://www.w3.org/2000/svg" xmlns:xlink="http://www.w3.org/1999/xlink" xmlns:a="http://ns.adobe.com/AdobeSVGViewerExtensions/3.0/"
	 x="0px" y="0px" width="126px" height="126px" viewBox="-26 -12 126 126"
	 overflow="visible" enable-background="new -26 -12 126 126" xml:space="preserve">
<defs>
</defs>
<path fill="#4E59A4" d="M73.98,24.443c-0.006-0.468-0.156-0.93-0.478-1.295L53.838,0.684c-0.006-0.006-0.012-0.008-0.016-0.014
	c-0.117-0.131-0.254-0.239-0.398-0.334c-0.043-0.028-0.086-0.053-0.131-0.078c-0.125-0.068-0.256-0.124-0.395-0.165
	c-0.037-0.011-0.07-0.026-0.107-0.036C52.643,0.021,52.488,0,52.332,0H4C1.795,0,0,1.795,0,4v94c0,2.206,1.795,4,4,4h66
	c2.205,0,4-1.794,4-4V24.667C74,24.592,73.988,24.518,73.98,24.443z M24.992,77.52h-6.623v19.653h-5.506V77.52H6.347v-4.606h18.645
	V77.52z M41.336,97.173l-2.195-4.392c-0.899-1.691-1.477-2.951-2.16-4.355h-0.072c-0.504,1.404-1.115,2.664-1.871,4.355
	l-2.016,4.392h-6.264l7.02-12.274L27.01,72.912h6.299l2.125,4.428c0.719,1.475,1.26,2.663,1.836,4.031h0.072
	c0.574-1.548,1.043-2.628,1.654-4.031l2.053-4.428h6.264l-6.84,11.842l7.199,12.419H41.336z M67.652,77.52h-6.623v19.653h-5.508
	V77.52h-6.517v-4.606H67.65v4.606H67.652z M4,67.917V4h46.332v20.466c0,1.104,0.896,2,2,2H70v41.451H4z"/>
<path fill="#4E59A4" d="M18.287,27.457h22.188c0.734,0,1.334-0.597,1.334-1.333s-0.6-1.332-1.334-1.332H18.287
	c-0.736,0-1.332,0.596-1.332,1.332S17.551,27.457,18.287,27.457z"/>
<path fill="#4E59A4" d="M54.666,35.45H18.252c-0.736,0-1.332,0.596-1.332,1.332c0,0.736,0.596,1.333,1.332,1.333h36.414
	c0.736,0,1.334-0.597,1.334-1.333C56,36.046,55.402,35.45,54.666,35.45z"/>
<path fill="#4E59A4" d="M54.666,46.033H18.252c-0.736,0-1.332,0.596-1.332,1.333c0,0.736,0.596,1.333,1.332,1.333h36.414
	c0.736,0,1.334-0.597,1.334-1.333C56,46.629,55.402,46.033,54.666,46.033z"/>
<path fill="#4E59A4" d="M54.666,56.87H18.252c-0.736,0-1.332,0.597-1.332,1.333s0.596,1.332,1.332,1.332h36.414
	c0.736,0,1.334-0.596,1.334-1.332S55.402,56.87,54.666,56.87z"/>
</svg>
