<?xml version="1.0" encoding="utf-8"?>
<!-- Generator: Adobe Illustrator 15.0.2, SVG Export Plug-In  -->
<!DOCTYPE svg PUBLIC "-//W3C//DTD SVG 1.1//EN" "http://www.w3.org/Graphics/SVG/1.1/DTD/svg11.dtd" [
	<!ENTITY ns_flows "http://ns.adobe.com/Flows/1.0/">
]>
<svg version="1.1"
	 xmlns="http://www.w3.org/2000/svg" xmlns:xlink="http://www.w3.org/1999/xlink" xmlns:a="http://ns.adobe.com/AdobeSVGViewerExtensions/3.0/"
	 x="0px" y="0px" width="126px" height="126px" viewBox="-25.893 -11.787 126 126"
	 overflow="visible" enable-background="new -25.893 -11.787 126 126" xml:space="preserve">
<defs>
</defs>
<path fill="#4E59A4" d="M73.98,24.443c-0.006-0.468-0.154-0.93-0.475-1.295L53.837,0.684c-0.004-0.006-0.01-0.008-0.017-0.014
	c-0.116-0.131-0.252-0.239-0.396-0.334c-0.043-0.028-0.086-0.053-0.131-0.078c-0.127-0.068-0.258-0.124-0.396-0.165
	c-0.037-0.011-0.069-0.026-0.106-0.036C52.642,0.022,52.489,0,52.333,0H4C1.795,0,0,1.795,0,4v94c0,2.206,1.795,4,4,4h66
	c2.207,0,4-1.794,4-4V24.667C74,24.592,73.988,24.518,73.98,24.443z M4,4h46.333v20.466c0,1.104,0.896,2,2,2H70l0.002,71.451H4V4z"
	/>
<path fill="#4E59A4" d="M58.899,63.176L46.226,48.052v-2.39h-2.004L30.725,29.556v-3.382h-4.078v4.079h2.966l10.092,12.042
	c-3.291-2.152-7.115-3.354-11.142-3.42c-4.684-0.089-9.191,1.402-12.91,4.184h-3.11v3.742h3.742v-2.594
	c3.502-2.663,7.753-4.059,12.256-4.032c5.272,0.086,10.194,2.221,13.862,6.009c0.027,0.029,0.048,0.06,0.076,0.088v3.13h2.445
	c4.492,7.138,3.953,16.513-1.52,23.104h-2.795v3.744h3.741v-2.846c5.15-6.154,6.236-14.605,3.203-21.74l9.818,11.716v3.875h4.079
	v-4.082H58.899z M27.949,27.476h1.475v1.476h-1.475V27.476z M60.152,65.951h-1.474v-1.473h1.474V65.951z"/>
</svg>
