<?xml version="1.0" encoding="utf-8"?>
<!-- Generator: Adobe Illustrator 15.0.2, SVG Export Plug-In  -->
<!DOCTYPE svg PUBLIC "-//W3C//DTD SVG 1.1//EN" "http://www.w3.org/Graphics/SVG/1.1/DTD/svg11.dtd" [
	<!ENTITY ns_flows "http://ns.adobe.com/Flows/1.0/">
]>
<svg version="1.1"
	 xmlns="http://www.w3.org/2000/svg" xmlns:xlink="http://www.w3.org/1999/xlink" xmlns:a="http://ns.adobe.com/AdobeSVGViewerExtensions/3.0/"
	 x="0px" y="0px" width="126px" height="126px" viewBox="-25.5 -11.5 126 126"
	 overflow="visible" enable-background="new -25.5 -11.5 126 126" xml:space="preserve">
<defs>
</defs>
<path fill="#4E59A4" d="M22.749,44.629h6.458v-6.573h-6.506v-6.574h6.506v-6.575h-6.506v-6.574h-6.574v6.574h6.506v6.575h-6.506
	v6.574h6.506v6.573h-6.457v6.575h6.506v6.573h6.572v-6.573h-6.505V44.629z M35.877,44.629h6.458v-6.573H35.83v-6.574h6.505v-6.575
	H35.83v-6.574h-6.576v6.574h6.506v6.575h-6.506v6.574h6.506v6.573h-6.457v6.575h6.506v6.573h6.574v-6.573h-6.506V44.629z
	 M73.98,24.443c-0.006-0.468-0.156-0.93-0.478-1.295L53.838,0.684c-0.004-0.006-0.01-0.008-0.016-0.014
	c-0.117-0.131-0.252-0.239-0.396-0.334c-0.043-0.028-0.086-0.053-0.131-0.078C53.168,0.19,53.037,0.134,52.9,0.093
	c-0.037-0.011-0.07-0.026-0.109-0.036C52.643,0.021,52.488,0,52.334,0H4C1.795,0,0,1.795,0,4v94c0,2.206,1.795,4,4,4h66
	c2.205,0,4-1.794,4-4V24.667C74,24.592,73.988,24.518,73.98,24.443z M27.904,96.082h-5.116l-1.768-8.991
	c-0.403-2.108-0.744-4.062-0.992-6.448h-0.062c-0.372,2.354-0.713,4.34-1.209,6.448l-1.984,8.991h-5.178v-0.001L6.634,75.184h5.054
	l1.582,8.588c0.465,2.514,0.899,5.209,1.24,7.317h0.062c0.341-2.263,0.837-4.774,1.364-7.379l1.768-8.526h5.023l1.674,8.807
	c0.465,2.449,0.806,4.683,1.116,7.008h0.062c0.31-2.325,0.775-4.773,1.209-7.286l1.705-8.524h4.806L27.904,96.082z M46.172,92.484
	c1.458,0,3.008-0.278,3.969-0.683l0.683,3.722c-0.837,0.4-2.821,0.896-5.333,0.896c-7.225,0-10.945-4.525-10.945-10.479
	c0-7.131,5.085-11.068,11.41-11.068c2.449,0,4.311,0.465,5.146,0.93l-0.992,3.721c-0.93-0.4-2.264-0.772-3.969-0.772
	c-3.721,0-6.636,2.265-6.636,6.914C39.505,89.85,41.984,92.484,46.172,92.484z M59.074,96.391c-2.387,0-4.744-0.649-5.922-1.303
	l0.961-3.875c1.24,0.651,3.225,1.303,5.24,1.303c2.17,0,3.316-0.897,3.316-2.264c0-1.303-0.992-2.047-3.503-2.914
	c-3.474-1.24-5.767-3.163-5.767-6.201c0-3.566,3.008-6.264,7.906-6.264c2.387,0,4.092,0.465,5.332,1.055l-1.054,3.782
	c-0.808-0.403-2.326-0.992-4.341-0.992c-2.047,0-3.039,0.962-3.039,2.017c0,1.332,1.146,1.923,3.876,2.945
	c3.688,1.363,5.396,3.285,5.396,6.231C67.477,93.414,64.811,96.391,59.074,96.391z M4,68V4h44.956v14.333h-6.573v6.574h6.573v0.002
	h-0.067v6.573h-6.506v6.574h6.506v6.573H42.43v6.574h6.508v6.574h6.572v-6.574h-6.505v-6.574h6.457v-6.573h-6.506v-6.574h6.506V26
	H70l0.002,42H4z"/>
</svg>
