<?xml version="1.0" encoding="utf-8"?>
<!-- Generator: Adobe Illustrator 15.0.2, SVG Export Plug-In  -->
<!DOCTYPE svg PUBLIC "-//W3C//DTD SVG 1.1//EN" "http://www.w3.org/Graphics/SVG/1.1/DTD/svg11.dtd" [
	<!ENTITY ns_flows "http://ns.adobe.com/Flows/1.0/">
]>
<svg version="1.1"
	 xmlns="http://www.w3.org/2000/svg" xmlns:xlink="http://www.w3.org/1999/xlink" xmlns:a="http://ns.adobe.com/AdobeSVGViewerExtensions/3.0/"
	 x="0px" y="0px" width="126px" height="126px" viewBox="0 0 126 126" overflow="visible" enable-background="new 0 0 126 126"
	 xml:space="preserve">
<defs>
</defs>
<path fill="#4E59A4" d="M73.98,24.443c-0.006-0.468-0.156-0.93-0.477-1.295L53.838,0.684c-0.004-0.006-0.01-0.008-0.016-0.014
	c-0.117-0.131-0.252-0.239-0.396-0.334c-0.043-0.028-0.086-0.053-0.131-0.078C53.168,0.19,53.037,0.134,52.9,0.093
	c-0.037-0.011-0.07-0.026-0.109-0.036C52.643,0.021,52.488,0,52.334,0H4C1.795,0,0,1.795,0,4v94c0,2.206,1.795,4,4,4h66
	c2.205,0,4-1.794,4-4V24.667C74,24.592,73.988,24.518,73.98,24.443z M27.904,96.082h-5.116l-1.768-8.991
	c-0.403-2.108-0.744-4.062-0.992-6.448h-0.062c-0.372,2.354-0.713,4.34-1.209,6.448l-1.984,8.991h-5.178v-0.001L6.634,75.184h5.054
	l1.582,8.588c0.465,2.513,0.899,5.209,1.24,7.317h0.062c0.341-2.263,0.837-4.774,1.364-7.379l1.768-8.526h5.023l1.674,8.806
	c0.465,2.45,0.806,4.683,1.116,7.008h0.062c0.31-2.325,0.775-4.774,1.209-7.286l1.705-8.525h4.806L27.904,96.082z M46.172,92.484
	c1.458,0,3.007-0.278,3.969-0.682l0.682,3.721c-0.837,0.401-2.821,0.897-5.333,0.897c-7.225,0-10.945-4.526-10.945-10.479
	c0-7.131,5.085-11.068,11.41-11.068c2.45,0,4.31,0.465,5.147,0.93l-0.992,3.721c-0.931-0.401-2.264-0.773-3.969-0.773
	c-3.721,0-6.636,2.264-6.636,6.914C39.505,89.85,41.985,92.484,46.172,92.484z M59.074,96.391c-2.387,0-4.744-0.65-5.922-1.303
	l0.961-3.875c1.24,0.651,3.225,1.303,5.24,1.303c2.17,0,3.317-0.898,3.317-2.264c0-1.303-0.992-2.047-3.503-2.914
	c-3.473-1.24-5.767-3.163-5.767-6.201c0-3.566,3.008-6.264,7.906-6.264c2.387,0,4.092,0.465,5.333,1.055l-1.054,3.782
	c-0.808-0.403-2.326-0.992-4.341-0.992c-2.047,0-3.039,0.962-3.039,2.017c0,1.332,1.147,1.922,3.876,2.945
	c3.688,1.363,5.396,3.285,5.396,6.231C67.477,93.414,64.811,96.391,59.074,96.391z M4,68V4h46v20.909h-1.112v6.573h-6.505v6.574
	h6.505v6.573H42.43v6.574h6.507v6.575h6.573v-6.575h-6.505v-6.574h6.457v-6.573h-6.506v-6.574h6.506V26H70l0.002,42H4z"/>
<polygon fill="#4E59A4" points="22.749,44.629 29.207,44.629 29.207,38.056 22.701,38.056 22.701,31.482 29.207,31.482 
	29.207,24.907 22.701,24.907 22.701,18.333 16.127,18.333 16.127,24.907 22.633,24.907 22.633,31.482 16.127,31.482 16.127,38.056 
	22.633,38.056 22.633,44.629 16.176,44.629 16.176,51.204 22.682,51.204 22.682,57.778 29.254,57.778 29.254,51.204 22.749,51.204 
	"/>
<polygon fill="#4E59A4" points="35.877,44.629 42.335,44.629 42.335,38.056 35.83,38.056 35.83,31.482 42.335,31.482 42.335,24.907 
	35.83,24.907 35.83,18.333 29.254,18.333 29.254,24.907 35.76,24.907 35.76,31.482 29.254,31.482 29.254,38.056 35.76,38.056 
	35.76,44.629 29.303,44.629 29.303,51.204 35.809,51.204 35.809,57.778 42.383,57.778 42.383,51.204 35.877,51.204 "/>
<rect x="42.383" y="18.333" fill="#4E59A4" width="6.573" height="6.574"/>
</svg>
