<?xml version="1.0" encoding="utf-8"?>
<!-- Generator: Adobe Illustrator 15.0.2, SVG Export Plug-In  -->
<!DOCTYPE svg PUBLIC "-//W3C//DTD SVG 1.1//EN" "http://www.w3.org/Graphics/SVG/1.1/DTD/svg11.dtd" [
	<!ENTITY ns_flows "http://ns.adobe.com/Flows/1.0/">
]>
<svg version="1.1"
	 xmlns="http://www.w3.org/2000/svg" xmlns:xlink="http://www.w3.org/1999/xlink" xmlns:a="http://ns.adobe.com/AdobeSVGViewerExtensions/3.0/"
	 x="0px" y="0px" width="126px" height="126px" viewBox="-25.893 -11.787 126 126"
	 overflow="visible" enable-background="new -25.893 -11.787 126 126" xml:space="preserve">
<defs>
</defs>
<path fill="#4E59A4" d="M46.226,33.052v-2.39h-2.004L30.725,14.556v-3.382h-4.078v4.079h2.966l10.092,12.042
	c-3.291-2.152-7.115-3.354-11.142-3.42c-4.684-0.089-9.191,1.402-12.91,4.184h-3.11v3.742h3.742v-2.594
	c3.502-2.663,7.753-4.059,12.256-4.032c5.272,0.086,10.194,2.221,13.862,6.009c0.027,0.029,0.048,0.06,0.076,0.088v3.13h2.445
	c4.492,7.138,3.953,16.513-1.52,23.104h-2.795v3.744h3.741v-2.846c5.15-6.154,6.236-14.605,3.203-21.74l9.818,11.716v3.875h4.079
	v-4.082h-2.555L46.226,33.052z M29.423,13.952h-1.475v-1.476h1.475V13.952z M60.152,50.951h-1.474v-1.473h1.474V50.951z"/>
<path fill="#4E59A4" d="M73.98,24.443c-0.006-0.468-0.154-0.93-0.475-1.295L53.837,0.684c-0.004-0.006-0.01-0.008-0.017-0.014
	c-0.116-0.131-0.252-0.239-0.396-0.334c-0.043-0.028-0.086-0.053-0.131-0.078c-0.127-0.068-0.258-0.124-0.396-0.165
	c-0.037-0.011-0.069-0.026-0.106-0.036C52.642,0.022,52.489,0,52.333,0H4C1.795,0,0,1.795,0,4v94c0,2.206,1.795,4,4,4h66
	c2.207,0,4-1.794,4-4V24.667C74,24.592,73.988,24.518,73.98,24.443z M28.435,95.316h-5.111l-1.766-8.982
	c-0.403-2.106-0.744-4.059-0.991-6.443h-0.062c-0.372,2.354-0.712,4.337-1.208,6.443l-1.982,8.982h-5.173L7.186,74.439h5.049
	l1.58,8.58c0.465,2.509,0.898,5.203,1.239,7.31h0.062c0.34-2.261,0.836-4.77,1.363-7.372l1.766-8.518h5.018l1.672,8.797
	c0.465,2.446,0.806,4.677,1.115,7h0.062c0.31-2.323,0.774-4.771,1.208-7.279l1.704-8.518h4.801L28.435,95.316z M49.035,78.311
	h-8.023v4.771h7.496v3.841h-7.496v8.395h-4.708V74.439h12.732V78.311z M57.707,95.626c-2.385,0-4.738-0.65-5.916-1.301l0.961-3.872
	c1.238,0.65,3.221,1.301,5.234,1.301c2.168,0,3.314-0.898,3.314-2.261c0-1.301-0.992-2.045-3.5-2.912
	c-3.469-1.238-5.762-3.159-5.762-6.194c0-3.562,3.004-6.258,7.898-6.258c2.385,0,4.09,0.465,5.328,1.054l-1.053,3.778
	c-0.807-0.402-2.324-0.99-4.338-0.99c-2.043,0-3.035,0.96-3.035,2.013c0,1.332,1.146,1.921,3.873,2.942
	c3.686,1.363,5.389,3.284,5.389,6.227C66.101,92.652,63.437,95.626,57.707,95.626z M4,67.917V4h46.333v20.466c0,1.104,0.896,2,2,2
	H70l0.002,41.451H4z"/>
</svg>
