<?xml version="1.0" encoding="utf-8"?>
<!-- Generator: Adobe Illustrator 15.0.2, SVG Export Plug-In  -->
<!DOCTYPE svg PUBLIC "-//W3C//DTD SVG 1.1//EN" "http://www.w3.org/Graphics/SVG/1.1/DTD/svg11.dtd" [
	<!ENTITY ns_flows "http://ns.adobe.com/Flows/1.0/">
]>
<svg version="1.1"
	 xmlns="http://www.w3.org/2000/svg" xmlns:xlink="http://www.w3.org/1999/xlink" xmlns:a="http://ns.adobe.com/AdobeSVGViewerExtensions/3.0/"
	 x="0px" y="0px" width="126px" height="126px" viewBox="-26 -12 126 126"
	 overflow="visible" enable-background="new -26 -12 126 126" xml:space="preserve">
<defs>
</defs>
<polygon points="51.494,26.276 51.502,26.279 51.502,26.276 "/>
<path fill="#4E59A4" d="M73.98,24.443c-0.006-0.468-0.156-0.93-0.476-1.295L53.838,0.684c-0.004-0.006-0.01-0.008-0.016-0.014
	c-0.117-0.131-0.252-0.239-0.396-0.334c-0.043-0.028-0.086-0.053-0.131-0.078C53.168,0.19,53.037,0.134,52.9,0.093
	c-0.037-0.011-0.07-0.026-0.109-0.036C52.643,0.021,52.488,0,52.334,0H4C1.795,0,0,1.795,0,4v94c0,2.206,1.795,4,4,4h66
	c2.205,0,4-1.794,4-4V24.667C74,24.592,73.988,24.518,73.98,24.443z M4,68V4h46v20.909h-1.112v6.573h-6.505v6.574h6.505v6.573H42.43
	v6.574h6.507v6.575h6.573v-6.575h-6.505v-6.574h6.457v-6.573h-6.506v-6.574h6.506V26H70l0.002,42H4z M9.958,95.104l-4.48-18.872
	h4.564l1.428,7.756c0.42,2.269,0.812,4.704,1.12,6.608h0.056c0.308-2.044,0.756-4.312,1.232-6.664l1.596-7.7h4.536l1.512,7.952
	c0.42,2.212,0.728,4.228,1.008,6.328h0.056c0.28-2.101,0.7-4.312,1.092-6.58l1.54-7.7h4.34l-4.872,18.872h-4.62l-1.596-8.12
	c-0.364-1.904-0.672-3.668-0.896-5.824h-0.056c-0.336,2.128-0.644,3.92-1.092,5.824l-1.792,8.12H9.958z M47.729,87.88
	c-0.084-2.269-0.168-5.013-0.168-7.756h-0.055c-0.617,2.407-1.4,5.096-2.129,7.308l-2.295,7.364H39.75l-2.018-7.28
	c-0.615-2.24-1.231-4.928-1.708-7.392h-0.056c-0.084,2.548-0.196,5.46-0.308,7.812l-0.364,7.168H31.35l1.204-18.872h5.685l1.848,6.3
	c0.615,2.185,1.176,4.536,1.596,6.748h0.111c0.504-2.184,1.148-4.676,1.793-6.775l1.988-6.272h5.6l1.008,18.872h-4.145L47.729,87.88
	z M55.598,90.708c1.119,0.588,2.912,1.176,4.73,1.176c1.961,0,2.996-0.812,2.996-2.044c0-1.177-0.895-1.849-3.164-2.632
	c-3.135-1.12-5.207-2.856-5.207-5.601c0-3.22,2.715-5.656,7.141-5.656c2.154,0,3.695,0.421,4.814,0.952l-0.951,3.416
	c-0.729-0.363-2.1-0.896-3.92-0.896c-1.848,0-2.744,0.868-2.744,1.819c0,1.204,1.035,1.736,3.5,2.66
	c3.332,1.232,4.871,2.968,4.871,5.628c0,3.164-2.406,5.853-7.588,5.853c-2.156,0-4.283-0.588-5.348-1.177L55.598,90.708z"/>
<polygon fill="#4E59A4" points="22.749,44.629 29.207,44.629 29.207,38.056 22.701,38.056 22.701,31.482 29.207,31.482 
	29.207,24.907 22.701,24.907 22.701,18.333 16.127,18.333 16.127,24.907 22.633,24.907 22.633,31.482 16.127,31.482 16.127,38.056 
	22.633,38.056 22.633,44.629 16.176,44.629 16.176,51.204 22.682,51.204 22.682,57.778 29.254,57.778 29.254,51.204 22.749,51.204 
	"/>
<polygon fill="#4E59A4" points="35.877,44.629 42.335,44.629 42.335,38.056 35.83,38.056 35.83,31.482 42.335,31.482 42.335,24.907 
	35.83,24.907 35.83,18.333 29.254,18.333 29.254,24.907 35.76,24.907 35.76,31.482 29.254,31.482 29.254,38.056 35.76,38.056 
	35.76,44.629 29.303,44.629 29.303,51.204 35.809,51.204 35.809,57.778 42.383,57.778 42.383,51.204 35.877,51.204 "/>
<rect x="42.383" y="18.333" fill="#4E59A4" width="6.573" height="6.574"/>
</svg>
