<?xml version="1.0" encoding="utf-8"?>
<!-- Generator: Adobe Illustrator 15.0.2, SVG Export Plug-In  -->
<!DOCTYPE svg PUBLIC "-//W3C//DTD SVG 1.1//EN" "http://www.w3.org/Graphics/SVG/1.1/DTD/svg11.dtd" [
	<!ENTITY ns_flows "http://ns.adobe.com/Flows/1.0/">
]>
<svg version="1.1"
	 xmlns="http://www.w3.org/2000/svg" xmlns:xlink="http://www.w3.org/1999/xlink" xmlns:a="http://ns.adobe.com/AdobeSVGViewerExtensions/3.0/"
	 x="0px" y="0px" width="126px" height="126px" viewBox="-26 -12 126 126"
	 overflow="visible" enable-background="new -26 -12 126 126" xml:space="preserve">
<defs>
</defs>
<path fill="#4E59A4" d="M73.98,24.443c-0.006-0.468-0.154-0.93-0.476-1.295L53.838,0.684c-0.004-0.006-0.01-0.008-0.016-0.014
	c-0.117-0.131-0.252-0.239-0.396-0.334c-0.043-0.028-0.086-0.053-0.131-0.078C53.168,0.19,53.037,0.134,52.9,0.093
	c-0.037-0.011-0.07-0.026-0.107-0.036C52.643,0.021,52.49,0,52.334,0H4C1.795,0,0,1.795,0,4v94c0,2.206,1.795,4,4,4h66
	c2.207,0,4-1.794,4-4V24.667C74,24.592,73.988,24.518,73.98,24.443z M4,67.917V4h46.334v20.466c0,1.104,0.895,2,2,2H70l0.002,41.451
	H4z M11.324,95.79L6.277,74.529h5.143l1.608,8.737c0.473,2.556,0.915,5.3,1.262,7.445h0.062c0.348-2.304,0.853-4.858,1.388-7.508
	l1.798-8.675h5.11l1.704,8.959c0.473,2.491,0.819,4.762,1.135,7.129h0.063c0.315-2.367,0.788-4.858,1.23-7.413l1.735-8.675h4.89
	L27.917,95.79h-5.205l-1.798-9.148c-0.409-2.145-0.757-4.132-1.009-6.561h-0.063c-0.378,2.397-0.726,4.416-1.23,6.561l-2.019,9.148
	H11.324z M35.892,74.813c1.482-0.253,3.564-0.442,6.497-0.442c2.967,0,5.079,0.567,6.499,1.704c1.388,1.072,2.271,2.838,2.271,4.92
	c0,2.083-0.662,3.881-1.955,5.048c-1.642,1.514-4.07,2.24-6.909,2.24c-0.631,0-1.199-0.033-1.64-0.128v7.635h-4.764V74.813z
	 M40.655,84.466c0.41,0.095,0.883,0.126,1.608,0.126c2.555,0,4.132-1.294,4.132-3.438c0-1.955-1.355-3.122-3.785-3.122
	c-0.946,0-1.608,0.062-1.955,0.157V84.466z M54.373,90.838c1.262,0.662,3.279,1.325,5.33,1.325c2.208,0,3.375-0.915,3.375-2.304
	c0-1.324-1.009-2.081-3.564-2.965c-3.533-1.262-5.867-3.217-5.867-6.31c0-3.627,3.06-6.372,8.045-6.372
	c2.428,0,4.163,0.475,5.425,1.073l-1.073,3.849c-0.819-0.41-2.365-1.01-4.415-1.01c-2.082,0-3.093,0.979-3.093,2.051
	c0,1.357,1.168,1.956,3.944,2.996c3.754,1.389,5.488,3.345,5.488,6.34c0,3.566-2.713,6.594-8.548,6.594
	c-2.429,0-4.827-0.662-6.025-1.325L54.373,90.838z"/>
<path fill="#4E59A4" d="M41.203,42.434c0.527-1.273,1.566-2.289,2.854-2.792c0.114-0.047,0.197-0.16,0.197-0.289v-3.885
	c0-0.127-0.083-0.248-0.197-0.296c-1.287-0.502-2.326-1.519-2.854-2.79c-0.523-1.273-0.512-2.729,0.042-3.99
	c0.051-0.114,0.022-0.258-0.063-0.349l-2.748-2.747c-0.151-0.149-0.268-0.103-0.353-0.068c-1.25,0.552-2.717,0.574-3.986,0.043
	c-1.276-0.525-2.292-1.566-2.794-2.851c-0.046-0.116-0.162-0.197-0.29-0.197h-3.884c-0.128,0-0.249,0.081-0.293,0.197
	c-0.499,1.284-1.52,2.325-2.789,2.851c-1.271,0.531-2.734,0.513-3.994-0.043c-0.08-0.031-0.193-0.081-0.347,0.068l-2.75,2.747
	c-0.088,0.091-0.116,0.234-0.066,0.352c0.559,1.261,0.568,2.714,0.042,3.987c-0.526,1.271-1.564,2.288-2.848,2.79
	c-0.121,0.048-0.204,0.161-0.204,0.296v3.885c0,0.129,0.083,0.242,0.204,0.289c1.283,0.503,2.321,1.519,2.848,2.792
	c0.526,1.272,0.517,2.729-0.042,3.994c-0.05,0.113-0.022,0.252,0.066,0.344l2.75,2.751c0.154,0.15,0.264,0.101,0.347,0.063
	c0.647-0.283,1.333-0.43,2.044-0.43c0.671,0,1.325,0.132,1.944,0.389c1.274,0.528,2.295,1.565,2.794,2.85
	c0.044,0.119,0.166,0.198,0.293,0.198h3.884c0.127,0,0.243-0.077,0.29-0.198c0.502-1.284,1.518-2.32,2.794-2.85
	c1.272-0.528,2.732-0.51,3.992,0.041c0.083,0.038,0.193,0.084,0.348-0.063l2.746-2.751c0.088-0.092,0.116-0.23,0.064-0.344
	C40.691,45.163,40.678,43.706,41.203,42.434z M29.067,44.964c-4.17,0-7.553-3.389-7.553-7.558c0-4.163,3.383-7.558,7.553-7.558
	c4.168,0,7.557,3.395,7.557,7.558C36.624,41.575,33.235,44.964,29.067,44.964z"/>
<path fill="#4E59A4" d="M57.07,47.733c-0.646-0.252-1.168-0.763-1.434-1.4c-0.264-0.64-0.257-1.369,0.021-2.004
	c0.025-0.058,0.012-0.128-0.033-0.176l-1.379-1.378c-0.076-0.076-0.135-0.052-0.178-0.034c-0.627,0.277-1.364,0.288-2,0.021
	c-0.642-0.264-1.151-0.787-1.403-1.431c-0.022-0.06-0.082-0.1-0.146-0.1h-1.951c-0.063,0-0.125,0.04-0.146,0.1
	c-0.251,0.644-0.763,1.167-1.4,1.431c-0.639,0.267-1.373,0.258-2.004-0.021c-0.041-0.017-0.098-0.042-0.175,0.034l-1.381,1.378
	c-0.044,0.048-0.06,0.118-0.032,0.179c0.28,0.632,0.284,1.361,0.021,2.001c-0.265,0.638-0.785,1.148-1.429,1.4
	c-0.062,0.024-0.103,0.082-0.103,0.149v1.951c0,0.064,0.041,0.121,0.103,0.145c0.644,0.251,1.164,0.762,1.429,1.402
	c0.265,0.638,0.26,1.369-0.021,2.004c-0.025,0.058-0.012,0.127,0.032,0.175l1.381,1.381c0.078,0.074,0.134,0.05,0.175,0.029
	c0.324-0.142,0.668-0.215,1.025-0.215c0.337,0,0.666,0.064,0.977,0.195c0.64,0.264,1.151,0.785,1.402,1.43
	c0.021,0.061,0.083,0.1,0.146,0.1h1.951c0.063,0,0.123-0.039,0.146-0.1c0.252-0.645,0.762-1.166,1.403-1.43
	c0.639-0.266,1.371-0.258,2.004,0.02c0.042,0.021,0.098,0.043,0.174-0.029l1.379-1.381c0.045-0.048,0.059-0.117,0.033-0.175
	c-0.278-0.635-0.285-1.366-0.021-2.004c0.266-0.641,0.786-1.151,1.434-1.402c0.058-0.023,0.099-0.08,0.099-0.145v-1.951
	C57.168,47.819,57.127,47.758,57.07,47.733z M49.544,52.65c-2.094,0-3.792-1.702-3.792-3.795c0-2.091,1.698-3.795,3.792-3.795
	c2.092,0,3.793,1.704,3.793,3.795C53.338,50.948,51.637,52.65,49.544,52.65z"/>
</svg>
