<?xml version="1.0" encoding="utf-8"?>
<!-- Generator: Adobe Illustrator 15.0.2, SVG Export Plug-In  -->
<!DOCTYPE svg PUBLIC "-//W3C//DTD SVG 1.1//EN" "http://www.w3.org/Graphics/SVG/1.1/DTD/svg11.dtd" [
	<!ENTITY ns_flows "http://ns.adobe.com/Flows/1.0/">
]>
<svg version="1.1"
	 xmlns="http://www.w3.org/2000/svg" xmlns:xlink="http://www.w3.org/1999/xlink" xmlns:a="http://ns.adobe.com/AdobeSVGViewerExtensions/3.0/"
	 x="0px" y="0px" width="126px" height="126px" viewBox="-25.893 -12.141 126 126"
	 overflow="visible" enable-background="new -25.893 -12.141 126 126" xml:space="preserve">
<defs>
</defs>
<path fill="#4E59A4" d="M73.981,24.444c-0.006-0.468-0.153-0.93-0.476-1.295L53.837,0.684c-0.004-0.006-0.01-0.008-0.016-0.014
	c-0.117-0.131-0.252-0.239-0.396-0.334c-0.043-0.028-0.086-0.053-0.131-0.078C53.167,0.19,53.037,0.134,52.9,0.093
	c-0.037-0.011-0.07-0.026-0.107-0.036C52.643,0.022,52.49,0,52.333,0H4C1.795,0,0,1.795,0,4v94c0,2.207,1.795,4,4,4h66
	c2.207,0,4-1.793,4-4V24.668C74,24.592,73.988,24.518,73.981,24.444z M23.258,96.892L21.012,92.4c-0.92-1.73-1.51-3.02-2.209-4.455
	h-0.074c-0.516,1.438-1.141,2.725-1.914,4.455l-2.063,4.492H8.346l7.18-12.557L8.604,72.075h6.443l2.172,4.529
	c0.736,1.509,1.289,2.726,1.879,4.123h0.072c0.59-1.583,1.068-2.688,1.693-4.123l2.1-4.529h6.406l-6.995,12.114l7.365,12.703H23.258
	L23.258,96.892z M48.255,96.892H32.754V72.076h5.635v20.104h9.866V96.892z M57.643,97.259c-2.834,0-5.634-0.735-7.031-1.51
	l1.142-4.639c1.51,0.771,3.83,1.546,6.223,1.546c2.578,0,3.939-1.067,3.939-2.688c0-1.547-1.179-2.43-4.16-3.498
	c-4.123-1.436-6.813-3.719-6.813-7.326c0-4.234,3.535-7.475,9.392-7.475c2.797,0,4.858,0.59,6.332,1.252l-1.252,4.528
	c-0.994-0.479-2.763-1.179-5.191-1.179c-2.43,0-3.607,1.104-3.607,2.395c0,1.582,1.398,2.282,4.602,3.498
	c4.382,1.619,6.443,3.901,6.443,7.399C67.659,93.726,64.457,97.259,57.643,97.259z M4,67.917V4.001h46.333v20.466
	c0,1.104,0.896,2,2,2H70l0.002,41.451H4L4,67.917z"/>
<path fill="#4E59A4" d="M42.917,25.625H27.334H9.75v7.5v1v6.5v1v6.5v1v7.5h16.583h1h15.584h1H60.5v-8.5v-6.5v-7.5v-1v-7.5H42.917z
	 M42.917,40.625H27.334v-6.5h15.583V40.625z M10.75,26.625h15.583v6.5H10.75V26.625z M10.75,34.125h15.583v6.5H10.75V34.125z
	 M10.75,41.625h15.583v6.5H10.75V41.625z M10.75,55.625v-6.5h15.583v6.5H10.75z M27.334,55.625v-6.5h15.583v6.5H27.334z
	 M59.5,55.625H43.917v-6.5H59.5V55.625z M59.5,40.625H43.917v-6.5H59.5V40.625z M43.917,33.125v-6.5H59.5v6.5H43.917z"/>
</svg>
