<?xml version="1.0" encoding="utf-8"?>
<!-- Generator: Adobe Illustrator 15.0.2, SVG Export Plug-In  -->
<!DOCTYPE svg PUBLIC "-//W3C//DTD SVG 1.1//EN" "http://www.w3.org/Graphics/SVG/1.1/DTD/svg11.dtd" [
	<!ENTITY ns_flows "http://ns.adobe.com/Flows/1.0/">
]>
<svg version="1.1"
	 xmlns="http://www.w3.org/2000/svg" xmlns:xlink="http://www.w3.org/1999/xlink" xmlns:a="http://ns.adobe.com/AdobeSVGViewerExtensions/3.0/"
	 x="0px" y="0px" width="126px" height="126px" viewBox="-26 -12 126 126"
	 overflow="visible" enable-background="new -26 -12 126 126" xml:space="preserve">
<defs>
</defs>
<path fill="#4E59A4" d="M73.979,24.442c-0.004-0.468-0.153-0.929-0.475-1.295L53.838,0.682c-0.006-0.005-0.012-0.008-0.016-0.013
	c-0.117-0.132-0.254-0.239-0.398-0.334c-0.043-0.028-0.086-0.054-0.131-0.078c-0.125-0.069-0.258-0.124-0.395-0.165
	c-0.037-0.011-0.07-0.027-0.107-0.035C52.643,0.021,52.488,0,52.332,0H4C1.793,0,0,1.794,0,4v94c0,2.205,1.793,4,4,4h66
	c2.205,0,4-1.795,4-4V24.666C74,24.591,73.988,24.517,73.979,24.442z M18.871,94.545l-1.977-3.949
	c-0.809-1.521-1.326-2.654-1.941-3.918h-0.064c-0.453,1.264-1.004,2.396-1.684,3.918l-1.813,3.949H5.761l6.311-11.039L5.988,72.729
	h5.664l1.908,3.98c0.648,1.328,1.133,2.396,1.652,3.625h0.064c0.518-1.391,0.938-2.361,1.488-3.625l1.846-3.98h5.631l-6.15,10.649
	l6.475,11.167H18.871z M45.998,94.545l-0.324-8.352c-0.098-2.623-0.195-5.795-0.195-8.967h-0.096
	c-0.68,2.784-1.586,5.892-2.428,8.448l-2.654,8.513h-3.854l-2.33-8.447c-0.711-2.557-1.455-5.664-1.975-8.514h-0.064
	c-0.129,2.945-0.227,6.312-0.389,9.03l-0.387,8.287h-4.564l1.393-21.817h6.57l2.137,7.284c0.68,2.523,1.359,5.242,1.844,7.8h0.098
	c0.615-2.523,1.359-5.404,2.072-7.832l2.33-7.252h6.441l1.197,21.817L45.998,94.545L45.998,94.545z M68.238,94.545H54.609V72.729
	h4.953v17.674h8.676V94.545z M70,67.916H4V4h46.332v20.465c0,1.104,0.896,2,2,2H70V67.916z"/>
<polygon fill="#4E59A4" points="7.866,43.497 19.41,48.86 19.41,46.311 10.68,42.487 10.68,42.438 19.41,38.614 19.41,36.065 
	7.866,41.428 "/>
<polygon fill="#4E59A4" points="55.783,38.614 64.707,42.438 64.707,42.487 55.783,46.311 55.783,48.86 67.327,43.569 
	67.327,41.356 55.783,36.065 "/>
<path fill="#4E59A4" d="M37.367,28.688c-7.607,0-13.774,6.167-13.774,13.774s6.167,13.774,13.774,13.774s13.773-6.167,13.773-13.774
	S44.975,28.688,37.367,28.688z M42.544,34.155l0.985-0.659c0,0-0.414-1.061-0.344-1.581c0.238-0.116,1.209,0.393,2.028,1.256
	c-0.552,2.054-1.847,1.809-1.847,1.809S42.42,34.957,42.544,34.155z M34.241,46.283c-0.061,0.308-0.432,1.049-0.678,1.541
	c-0.246,0.493-0.369,0.679-0.679,0.925c-0.309,0.25-0.492,0.679-0.492,0.679l-0.062,1.047c0,0,0.121,0.865,0.306,1.173
	c0.185,0.307-0.66,2.144-0.66,2.144c-0.536-0.106-0.834-0.728-1.02-1.218c-0.186-0.495-0.431-0.758-0.369-1.311
	c0.062-0.555-0.479-0.848-0.662-1.156c-0.184-0.312-0.432-0.741-0.432-1.049c0-0.309-0.677-0.741-0.677-0.741
	s-1.234-0.555-1.419-0.8c-0.185-0.247-0.372-1.298-0.432-1.727c-0.063-0.43,0.184-1.54,0.184-1.54s0.498-0.374,0.185-0.679
	c-0.309-0.308-0.368-1.112-0.368-1.112l-0.556-0.615c0,0-0.433-0.617-0.494-0.926c-0.062-0.308,0-0.493,0.062-0.802
	c0.061-0.31-0.123-0.863-0.123-1.17c2.304-5.649,6.167-6.967,6.167-6.967l0.309,1.292c0,0-0.678,0.186-1.046,0.064
	c-0.372-0.124-0.559-0.124-0.559-0.124l-0.491,0.677c0,0-0.188,0.433-0.249,0.68s0.123,0.615,0.123,0.615s0.862,0.062,0.862-0.184
	c0-0.247-0.121-0.37-0.121-0.37l-0.124-0.432c0,0,0.559-0.309,2.034-0.188c1.48,0.125,0.927,1.172,1.545,1.421
	c0.617,0.247-0.496,1.109-0.742,1.601c-0.246,0.494-0.616-0.617-0.616-0.617s0.37-0.427-0.246-0.554
	c-0.617-0.121-1.025,1.11-0.713,1.05c0.307-0.061,0.651,0.332,0.588,0.639c-0.062,0.309-0.062,0.285-0.37,0.962
	c-0.308,0.678-0.978,1.18-0.978,1.18s-0.315-0.192-0.133,0.179c0.189,0.369-0.061,1.232-0.061,1.479c0,0.245-0.74-0.432-0.861-1.05
	c-0.126-0.613-0.848-0.079-1.094-0.016c-0.247,0.063-0.697-0.107-0.816-0.413c-0.126-0.31-1.237,0.615-1.546,0.799
	c-0.307,0.186-0.182,0.68,0.309,0.433c0.493-0.247,0.924-0.062,0.802,0.434c-0.122,0.49-0.614,0.185-0.554,0.49
	c0.061,0.308,0.554,0.617,0.676,1.05c0.124,0.43,1.298,0.062,1.667-0.124c0.369-0.187,1.418-0.37,1.54,0.124
	c0.128,0.494,1.297,0.676,1.728,0.798c0.433,0.124,1.296,0.186,1.791,0.679C35.167,45.049,34.306,45.974,34.241,46.283z
	 M37.016,31.853c-0.063,0.618-1.047,1.418-0.924,1.667c0.124,0.249,0,1.303-0.863,0.377c-0.864-0.925-1.729-1.239-1.665-1.858
	c0.015-0.123,0.893-0.316,0.907-0.532c1.308-1.216,3.396-0.966,3.556-0.678C37.652,31.44,37.078,31.236,37.016,31.853z
	 M47.73,35.994c0.834,1.431,2.053,5.247,1.603,5.929c-0.271-0.122-0.498-0.224-0.498-0.224h-1.646l0.985,1.153
	c0,0,0.478,0.7,1.153,0.655c-0.445,5.157-4.749,8.47-4.749,8.47c-0.657-0.659-0.328-1.231-0.328-1.231l0.185-0.989l0.104-1.664
	c0,0,0-1.725-1.646-0.906c-1.768,0.451-1.031,0.451-2.815,0.575c-1.788,0.124-1.492-3.646-1.492-3.646
	c0-5.643,4.327-1.384,4.327-1.384c2.469,1.642,2.798-1.362,2.798-1.362l1.808-0.655l0.164-0.824l-0.263-1.149l-2.627-1.084
	c0,0-0.253,0.854,0.421,1.903c0,0-0.225,1.192-0.777,0.884l-1.522-0.765c0,0-0.513-0.222-1.334,0.273
	c-0.824,0.492-2.218-0.024-2.218-0.024s0.113-0.827,0.979-1.256l0.707-0.467c0,0-0.186-0.844-0.023-1.501
	c0.162-0.657,0.453-0.082,1.109-0.576c0.657-0.491,1.11,0.966,2.096,0.802c0.985-0.165,0.494-0.329,1.153-0.657
	c0.659-0.329,1.151,0.657,1.151,0.657l1.312,0.164C47.848,37.095,47.643,35.609,47.73,35.994z"/>
</svg>
