<?xml version="1.0" encoding="utf-8"?>
<!-- Generator: Adobe Illustrator 15.0.2, SVG Export Plug-In  -->
<!DOCTYPE svg PUBLIC "-//W3C//DTD SVG 1.1//EN" "http://www.w3.org/Graphics/SVG/1.1/DTD/svg11.dtd" [
	<!ENTITY ns_flows "http://ns.adobe.com/Flows/1.0/">
]>
<svg version="1.1"
	 xmlns="http://www.w3.org/2000/svg" xmlns:xlink="http://www.w3.org/1999/xlink" xmlns:a="http://ns.adobe.com/AdobeSVGViewerExtensions/3.0/"
	 x="0px" y="0px" width="126px" height="126px" viewBox="-26 -12 126 126"
	 overflow="visible" enable-background="new -26 -12 126 126" xml:space="preserve">
<defs>
</defs>
<path fill="#4E59A4" d="M73.98,24.443c-0.006-0.468-0.154-0.93-0.476-1.295L53.838,0.684c-0.004-0.006-0.01-0.008-0.016-0.014
	c-0.117-0.131-0.252-0.239-0.396-0.334c-0.043-0.028-0.086-0.053-0.131-0.078C53.168,0.19,53.037,0.134,52.9,0.093
	c-0.037-0.011-0.07-0.026-0.107-0.036C52.643,0.021,52.49,0,52.334,0H4C1.795,0,0,1.795,0,4v94c0,2.206,1.795,4,4,4h66
	c2.207,0,4-1.794,4-4V24.667C74,24.592,73.988,24.518,73.98,24.443z M31.111,96.943H12.25v-2.951l11.555-16.629v-0.146H13.33v-4.534
	h17.602v3.168L19.629,92.266v0.143h11.482V96.943z M40.078,96.943H34.57v-24.26h5.508V96.943z M60.02,85.822
	c-1.871,1.764-4.643,2.555-7.883,2.555c-0.721,0-1.367-0.035-1.871-0.107v8.676H44.83V73.008c1.691-0.289,4.066-0.504,7.414-0.504
	c3.385,0,5.795,0.646,7.416,1.943c1.547,1.224,2.592,3.238,2.592,5.615C62.252,82.438,61.459,84.454,60.02,85.822z M4,67.917V4
	h23.92V3.371h6.066V4h16.348v20.466c0,1.104,0.895,2,2,2H70l0.002,41.451H4z"/>
<path fill="#4E59A4" d="M52.533,76.643c-1.117,0-1.873,0.108-2.268,0.217v7.162c0.467,0.108,1.043,0.146,1.836,0.146
	c2.914,0,4.715-1.478,4.715-3.959C56.816,77.975,55.268,76.643,52.533,76.643z"/>
<rect x="33.986" y="7.392" fill="#4E59A4" width="6.066" height="2.503"/>
<rect x="27.92" y="4" fill="#4E59A4" width="6.066" height="1.875"/>
<rect x="27.92" y="11.138" fill="#4E59A4" width="6.066" height="2.503"/>
<rect x="33.986" y="15.236" fill="#4E59A4" width="6.066" height="2.503"/>
<rect x="33.986" y="23.145" fill="#4E59A4" width="6.066" height="2.503"/>
<rect x="27.92" y="19.125" fill="#4E59A4" width="6.066" height="2.503"/>
<path fill="#4E59A4" d="M33.986,27.692c-4.295,0-6.338,3.48-6.338,7.776L26.21,48.495c0,4.296,3.48,7.778,7.775,7.778
	c4.294,0,7.773-3.482,7.773-7.778l-1.434-13.027C40.326,31.173,38.281,27.692,33.986,27.692z M36.563,52.857h-5.148V41.982h5.148
	V52.857z"/>
</svg>
