<?xml version="1.0" encoding="utf-8"?>
<!-- Generator: Adobe Illustrator 15.0.2, SVG Export Plug-In . SVG Version: 6.00 Build 0)  -->
<!DOCTYPE svg PUBLIC "-//W3C//DTD SVG 1.1//EN" "http://www.w3.org/Graphics/SVG/1.1/DTD/svg11.dtd">
<svg version="1.1" id="Layer_1" xmlns="http://www.w3.org/2000/svg" xmlns:xlink="http://www.w3.org/1999/xlink" x="0px" y="0px"
	 width="100px" height="100px" viewBox="0 0 100 100" enable-background="new 0 0 100 100" xml:space="preserve">
<path fill="#4E59A4" d="M65.436,20.413c-7.649,0-14.865,2.693-19.281,7.179L28.436,45.249L5,21.81v56.337l23.432-23.435
	l17.684,17.685c0.284,0.293,7.098,7.189,17.96,7.189c0.514,0,1.033-0.013,1.562-0.046C82.376,78.524,95,65.816,95,49.98
	C95,33.677,81.734,20.413,65.436,20.413z M11.693,61.982V37.973l12.001,12l0.005,0.007L11.693,61.982z M65.232,72.86
	c-8.575,0.49-14.271-5.083-14.35-5.161L33.17,49.983L50.902,32.31c3.158-3.21,8.728-5.204,14.533-5.204
	c12.609,0,22.869,10.26,22.869,22.874C88.307,62.225,78.387,72.062,65.232,72.86z M75.293,35.755c-2.77,0-5.021,2.252-5.021,5.021
	s2.252,5.021,5.021,5.021s5.021-2.252,5.021-5.021C80.312,38.008,78.062,35.755,75.293,35.755z M75.293,42.45
	c-0.922,0-1.673-0.75-1.673-1.674c0-0.923,0.751-1.673,1.673-1.673s1.674,0.75,1.674,1.673C76.967,41.7,76.215,42.45,75.293,42.45z
	 M64.141,47.196l4.733,4.733l-9.062,9.06l-8.641-8.642l4.732-4.733l3.908,3.909L64.141,47.196z"/>
</svg>
