<?xml version="1.0" encoding="utf-8"?>
<!-- Generator: Adobe Illustrator 15.0.2, SVG Export Plug-In . SVG Version: 6.00 Build 0)  -->
<!DOCTYPE svg PUBLIC "-//W3C//DTD SVG 1.1//EN" "http://www.w3.org/Graphics/SVG/1.1/DTD/svg11.dtd">
<svg version="1.1" id="Layer_1" xmlns="http://www.w3.org/2000/svg" xmlns:xlink="http://www.w3.org/1999/xlink" x="0px" y="0px"
	 width="100px" height="100px" viewBox="0 0 100 100" enable-background="new 0 0 100 100" xml:space="preserve">
<path fill="#4E59A4" d="M61.429,60.805V16.429C61.429,10.126,56.302,5,50,5s-11.429,5.126-11.429,11.429v44.375
	c-4.602,3.481-7.619,8.95-7.619,15.147C30.952,86.455,39.497,95,50,95c10.502,0,19.048-8.545,19.048-19.048
	C69.048,69.755,66.03,64.286,61.429,60.805z M50,87.381c-6.302,0-11.429-5.126-11.429-11.429c0-4.959,3.193-9.147,7.618-10.729
	v-7.932c-0.903,0.182-0.905,0.182,0,0v-4.195H50v-7.621h-3.811v-3.81H50v-7.619h-3.811v-3.81H50v-7.619h-3.811v-6.19
	c0-2.1,1.709-3.81,3.811-3.81c2.1,0,3.81,1.709,3.81,3.81V57.29v7.933c4.426,1.58,7.619,5.77,7.619,10.729
	C61.429,82.255,56.302,87.381,50,87.381z"/>
</svg>
