<?xml version="1.0" encoding="utf-8"?>
<!-- Generator: Adobe Illustrator 15.0.2, SVG Export Plug-In . SVG Version: 6.00 Build 0)  -->
<!DOCTYPE svg PUBLIC "-//W3C//DTD SVG 1.1//EN" "http://www.w3.org/Graphics/SVG/1.1/DTD/svg11.dtd">
<svg version="1.1" id="Layer_1" xmlns="http://www.w3.org/2000/svg" xmlns:xlink="http://www.w3.org/1999/xlink" x="0px" y="0px"
	 width="100px" height="100px" viewBox="0 0 100 100" enable-background="new 0 0 100 100" xml:space="preserve">
<path fill="#4E59A4" d="M87.31,60.814l-6.002-3.245c-0.987,1.822-2.174,3.478-3.452,5.05l-2.778-2.783
	C78.961,54.911,81.3,48.71,81.3,41.963c0-15.949-12.973-28.924-28.922-28.924c-6.748,0-12.948,2.34-17.875,6.228l-2.842-2.841
	c2.582-2.083,5.507-3.809,8.732-5.072L37.905,5C22.587,11.001,12.69,25.509,12.69,41.963c0,20.731,15.987,37.774,36.278,39.512
	v6.702H37.454V95h29.848v-6.823H55.79v-6.762C69.026,80.276,80.906,72.65,87.31,60.814z M52.378,19.861
	c12.186,0,22.1,9.914,22.1,22.102s-9.914,22.104-22.1,22.104c-12.188,0-22.102-9.916-22.102-22.104S40.189,19.861,52.378,19.861z
	 M19.512,41.963c0-7.765,2.736-14.955,7.372-20.67l2.795,2.797c-3.888,4.925-6.226,11.125-6.226,17.873
	c0,15.951,12.976,28.926,28.925,28.926c6.748,0,12.946-2.339,17.875-6.23l2.812,2.818c-5.757,4.667-13.011,7.349-20.687,7.349
	C34.257,74.825,19.512,60.085,19.512,41.963z"/>
</svg>
