<?xml version="1.0" encoding="utf-8"?>
<!-- Generator: Adobe Illustrator 15.0.2, SVG Export Plug-In . SVG Version: 6.00 Build 0)  -->
<!DOCTYPE svg PUBLIC "-//W3C//DTD SVG 1.1//EN" "http://www.w3.org/Graphics/SVG/1.1/DTD/svg11.dtd">
<svg version="1.1" id="Layer_1" xmlns="http://www.w3.org/2000/svg" xmlns:xlink="http://www.w3.org/1999/xlink" x="0px" y="0px"
	 width="100px" height="100px" viewBox="0 0 100 100" enable-background="new 0 0 100 100" xml:space="preserve">
<path fill="#4E59A4" d="M91.43,67.562C93.727,62.161,95,56.229,95,50C95,25.187,74.812,5,50,5C25.187,5,5,25.187,5,50
	c0,24.812,20.187,45,45,45c18.236,0,33.941-10.923,41.001-26.555L91.43,67.562z M46.878,67.211L45.73,55.753l4.712-1.662h36.137
	c-0.271,2.413-0.767,4.763-1.478,7.017L46.878,67.211z M63.159,36.75h21.149c1.127,2.898,1.909,5.962,2.27,9.159H64.542
	L63.159,36.75z M79.875,28.569H61.93l-2.115-14.017C68.002,16.821,75.041,21.843,79.875,28.569z M51.346,13.25l4.924,32.66h-7.227
	l-13.944,4.914l-6.474-30.742c6.034-4.325,13.401-6.9,21.375-6.9C50.456,13.182,50.895,13.234,51.346,13.25z M21.627,26.563
	l5.687,27l-13.177,4.644c-0.606-2.644-0.955-5.386-0.955-8.206C13.182,41.103,16.356,32.935,21.627,26.563z M16.853,65.924
	l20.934-7.374l2.703,26.978C30.059,82.73,21.463,75.477,16.853,65.924z M48.835,86.758l-1.141-11.394l18.057-2.884v10.746
	c-4.782,2.281-10.11,3.592-15.751,3.592C49.606,86.818,49.227,86.771,48.835,86.758z M73.936,77.917v-6.743l6.891-1.104
	C78.908,73.003,76.583,75.645,73.936,77.917z"/>
</svg>
