<?xml version="1.0" encoding="utf-8"?>
<!-- Generator: Adobe Illustrator 15.0.2, SVG Export Plug-In . SVG Version: 6.00 Build 0)  -->
<!DOCTYPE svg PUBLIC "-//W3C//DTD SVG 1.1//EN" "http://www.w3.org/Graphics/SVG/1.1/DTD/svg11.dtd">
<svg version="1.1" id="Layer_1" xmlns="http://www.w3.org/2000/svg" xmlns:xlink="http://www.w3.org/1999/xlink" x="0px" y="0px"
	 width="100px" height="100px" viewBox="0 0 100 100" enable-background="new 0 0 100 100" xml:space="preserve">
<path fill="#4E59A4" d="M86.439,10.401c-4.209,3.284-8.638,4.878-13.548,4.878c-8.262,0.002-15.586-4.588-19.521-7.055l-2.969-1.835
	l-2.646,1.632c-3.797,2.354-11.695,7.257-20.438,7.257c-5.046,0.002-9.547-1.594-13.758-4.878L6.637,5l0.666,8.757
	c0.232,3.066,5.901,72.738,37.814,80.496c0,0,5.561,0.747,5.889,0.747l3.883-0.747c31.911-7.758,37.579-77.43,37.811-80.496
	l0.664-8.755L86.439,10.401z M50.644,87.109l-0.641,0.061l-0.641-0.061C28.267,85.13,18.729,43.744,15.825,20.717
	c3.625,1.549,7.468,2.33,11.494,2.328c9.862,0,18.278-4.611,23.073-7.527c4.597,2.838,12.865,7.529,22.5,7.527
	c3.933,0,7.705-0.775,11.284-2.313C81.268,43.763,71.732,85.13,50.644,87.109z"/>
</svg>
