<?xml version="1.0" encoding="utf-8"?>
<!-- Generator: Adobe Illustrator 15.0.2, SVG Export Plug-In . SVG Version: 6.00 Build 0)  -->
<!DOCTYPE svg PUBLIC "-//W3C//DTD SVG 1.1//EN" "http://www.w3.org/Graphics/SVG/1.1/DTD/svg11.dtd">
<svg version="1.1" id="Layer_1" xmlns="http://www.w3.org/2000/svg" xmlns:xlink="http://www.w3.org/1999/xlink" x="0px" y="0px"
	 width="100px" height="100px" viewBox="0 0 100 100" enable-background="new 0 0 100 100" xml:space="preserve">
<path fill="#4E59A4" d="M49.995,19.247c-8.684,0-15.75,7.066-15.75,15.752c0,8.684,7.066,15.748,15.75,15.748
	c8.685,0,15.751-7.064,15.751-15.748C65.746,26.313,58.68,19.247,49.995,19.247z M49.995,41.747c-3.722,0-6.75-3.028-6.75-6.748
	c0-3.724,3.028-6.752,6.75-6.752c3.728,0,6.751,3.028,6.751,6.752C56.746,38.719,53.723,41.747,49.995,41.747z M80.002,34.999
	C80.002,18.46,66.541,5,49.995,5C33.459,5,19.998,18.46,19.998,34.999c0,4.834,1.176,9.394,3.22,13.441h-0.021l0.112,0.189
	c0.446,0.87,0.93,1.719,1.457,2.54L49.995,95l25.388-44.086c0.448-0.712,0.875-1.437,1.262-2.193l0.162-0.281h-0.025
	C78.818,44.393,80.002,39.833,80.002,34.999z M68.742,44.395l-0.197,0.389c-0.246,0.468-0.514,0.917-0.791,1.362l-0.088,0.136
	l-0.079,0.141L49.998,76.965L32.566,46.678l-0.111-0.193l-0.119-0.187c-0.32-0.497-0.615-1.009-0.892-1.532l-0.193-0.382
	c-1.494-2.962-2.253-6.119-2.253-9.385C28.998,23.42,38.418,14,49.995,14c11.582,0,21.007,9.42,21.007,20.999
	C71.002,38.256,70.241,41.417,68.742,44.395z"/>
</svg>
