<?xml version="1.0" encoding="utf-8"?>
<!-- Generator: Adobe Illustrator 15.0.2, SVG Export Plug-In . SVG Version: 6.00 Build 0)  -->
<!DOCTYPE svg PUBLIC "-//W3C//DTD SVG 1.1//EN" "http://www.w3.org/Graphics/SVG/1.1/DTD/svg11.dtd">
<svg version="1.1" id="Layer_1" xmlns="http://www.w3.org/2000/svg" xmlns:xlink="http://www.w3.org/1999/xlink" x="0px" y="0px"
	 width="100px" height="100px" viewBox="0 0 100 100" enable-background="new 0 0 100 100" xml:space="preserve">
<path fill="#4E59A4" d="M89.174,46.816C91.379,49.024,92.465,50,95,50v9c-6.367,0-9.729-3.361-12.189-5.816
	C80.605,50.977,79.516,50,76.984,50c-2.541,0-3.621,0.977-5.836,3.184C68.695,55.639,65.328,59,58.961,59
	c-6.363,0-9.726-3.364-12.177-5.818C44.578,50.977,43.497,50,40.97,50c-2.525,0-3.603,0.977-5.807,3.18
	C32.708,55.636,29.346,59,22.984,59c-6.36,0-9.723-3.364-12.177-5.82C8.604,50.977,7.523,50,5,50v-9
	c6.36,0,9.721,3.364,12.175,5.818C19.38,49.024,20.461,50,22.984,50c2.525,0,3.606-0.976,5.811-3.182
	C31.249,44.364,34.608,41,40.97,41c6.363,0,9.725,3.364,12.177,5.818C55.353,49.024,56.434,50,58.961,50
	c2.535,0,3.615-0.976,5.83-3.184C67.244,44.362,70.609,41,76.982,41C83.346,41,86.711,44.362,89.174,46.816z M89.173,26.566
	c-2.461-2.454-5.827-5.816-12.19-5.816c-6.373,0-9.738,3.362-12.19,5.816c-2.215,2.208-3.296,3.184-5.831,3.184
	c-2.527,0-3.607-0.976-5.814-3.182c-2.453-2.454-5.813-5.818-12.178-5.818c-6.36,0-9.721,3.364-12.175,5.818
	c-2.204,2.206-3.285,3.182-5.81,3.182s-3.605-0.976-5.811-3.182C14.722,24.114,11.361,20.75,5,20.75v9
	c2.524,0,3.604,0.976,5.809,3.18c2.454,2.456,5.815,5.82,12.176,5.82c6.361,0,9.723-3.364,12.178-5.82
	c2.204-2.204,3.282-3.18,5.807-3.18c2.527,0,3.608,0.976,5.814,3.182c2.452,2.454,5.814,5.818,12.178,5.818
	c6.367,0,9.732-3.362,12.186-5.816c2.215-2.208,3.295-3.184,5.836-3.184c2.531,0,3.621,0.976,5.826,3.184
	C85.271,35.388,88.633,38.75,95,38.75v-9C92.465,29.75,91.379,28.774,89.173,26.566z M76.982,61.25
	c-6.373,0-9.738,3.361-12.19,5.818c-2.215,2.205-3.296,3.182-5.831,3.182c-2.527,0-3.607-0.977-5.814-3.182
	c-2.451-2.452-5.813-5.818-12.176-5.818c-6.361,0-9.722,3.366-12.176,5.818c-2.204,2.205-3.285,3.182-5.81,3.182
	s-3.605-0.977-5.811-3.182C14.722,64.616,11.361,61.25,5,61.25v9c2.524,0,3.604,0.977,5.809,3.182
	c2.454,2.452,5.815,5.818,12.177,5.818s9.723-3.366,12.178-5.818c2.204-2.205,3.282-3.182,5.808-3.182
	c2.526,0,3.607,0.977,5.813,3.182c2.452,2.452,5.813,5.818,12.178,5.818c6.367,0,9.733-3.361,12.187-5.818
	c2.215-2.205,3.295-3.182,5.836-3.182c2.531,0,3.621,0.977,5.826,3.182C85.271,75.889,88.633,79.25,95,79.25v-9
	c-2.535,0-3.621-0.977-5.827-3.182C86.712,64.611,83.346,61.25,76.982,61.25z"/>
</svg>
