<?xml version="1.0" encoding="utf-8"?>
<!-- Generator: Adobe Illustrator 15.0.2, SVG Export Plug-In . SVG Version: 6.00 Build 0)  -->
<!DOCTYPE svg PUBLIC "-//W3C//DTD SVG 1.1//EN" "http://www.w3.org/Graphics/SVG/1.1/DTD/svg11.dtd">
<svg version="1.1" id="Layer_1" xmlns="http://www.w3.org/2000/svg" xmlns:xlink="http://www.w3.org/1999/xlink" x="0px" y="0px"
	 width="100px" height="100px" viewBox="0 0 100 100" enable-background="new 0 0 100 100" xml:space="preserve">
<path fill="#4E59A4" d="M87.448,13.825l0.011-0.043L62.135,6.186l-24.286,7.283L13.017,5.931v0.002L9.941,4.999v80.159l27.907,8.747
	l24.286-7.282l20.639,6.194l0,0l7.285,2.184v-7.605V14.497L87.448,13.825z M47.219,65.366l-1.021-10.202l4.193-1.479h32.381v6.001
	L47.219,65.366z M61.717,38.251h21.057v8.153H62.944L61.717,38.251z M82.773,19.979v10.989H60.621l-2.414-16.002l3.928-1.178
	L82.773,19.979z M51.159,17.08l4.421,29.325h-6.434l-12.413,4.372l-6.759-32.092l7.873,2.388L51.159,17.08z M17.225,14.82
	l4.799,1.455l7.78,36.94l-12.58,4.433L17.225,14.82L17.225,14.82z M17.225,79.817V65.37l21.904-7.719l2.748,27.443l-4.028,1.207
	L17.225,79.817z M48.982,82.966l-1.035-10.34l16.073-2.568v9.528l-1.888-0.569L48.982,82.966z M71.303,81.767V68.892l11.471-1.834
	V85.21L71.303,81.767z"/>
</svg>
