<?xml version="1.0" encoding="utf-8"?>
<!-- Generator: Adobe Illustrator 15.0.2, SVG Export Plug-In . SVG Version: 6.00 Build 0)  -->
<!DOCTYPE svg PUBLIC "-//W3C//DTD SVG 1.1//EN" "http://www.w3.org/Graphics/SVG/1.1/DTD/svg11.dtd">
<svg version="1.1" id="Layer_1" xmlns="http://www.w3.org/2000/svg" xmlns:xlink="http://www.w3.org/1999/xlink" x="0px" y="0px"
	 width="100px" height="100px" viewBox="0 0 100 100" enable-background="new 0 0 100 100" xml:space="preserve">
<path fill="#4E59A4" d="M16.364,49.541c-6.955,0-12.613,5.659-12.613,12.612V95h25.226V62.152
	C28.978,55.199,23.319,49.541,16.364,49.541z M20.569,86.592L20.569,86.592h-8.409V62.152c0-2.314,1.887-4.203,4.204-4.203
	c2.318,0,4.205,1.889,4.205,4.203V86.592z M7.956,36.401c0-4.644,3.765-8.409,8.409-8.409c4.645,0,8.409,3.765,8.409,8.409
	s-3.765,8.409-8.409,8.409C11.72,44.811,7.956,41.045,7.956,36.401z M83.635,49.541c-6.955,0-12.613,5.659-12.613,12.612V95h25.227
	V62.152C96.248,55.199,90.59,49.541,83.635,49.541z M87.84,86.592h-8.408V62.152c0-2.314,1.889-4.203,4.203-4.203
	c2.316,0,4.205,1.889,4.205,4.203V86.592z M75.227,36.401c0-4.642,3.77-8.409,8.408-8.409s8.408,3.767,8.408,8.409
	c0,4.644-3.768,8.409-8.408,8.409S75.227,41.045,75.227,36.401z M50,26.547c-6.955,0-12.613,5.658-12.613,12.613v32.845h25.227
	V39.162C62.613,32.206,56.955,26.547,50,26.547z M54.203,63.6h-8.409V39.162c0-2.318,1.889-4.205,4.205-4.205
	c2.315,0,4.204,1.887,4.204,4.205V63.6z M41.59,13.409C41.59,8.767,45.36,5,50,5s8.409,3.767,8.409,8.409
	c0,4.644-3.768,8.409-8.409,8.409C45.359,21.817,41.59,18.052,41.59,13.409z"/>
</svg>
