<?xml version="1.0" encoding="utf-8"?>
<!-- Generator: Adobe Illustrator 15.0.2, SVG Export Plug-In . SVG Version: 6.00 Build 0)  -->
<!DOCTYPE svg PUBLIC "-//W3C//DTD SVG 1.1//EN" "http://www.w3.org/Graphics/SVG/1.1/DTD/svg11.dtd">
<svg version="1.1" id="Layer_1" xmlns="http://www.w3.org/2000/svg" xmlns:xlink="http://www.w3.org/1999/xlink" x="0px" y="0px"
	 width="100px" height="100px" viewBox="0 0 100 100" enable-background="new 0 0 100 100" xml:space="preserve">
<path fill="#4E59A4" d="M95,75.857c0,5.129-4.152,9.285-9.282,9.285c-5.129,0-9.282-4.156-9.282-9.285
	c0-5.125,4.153-9.277,9.282-9.277C90.848,66.58,95,70.732,95,75.857z M14.282,66.58C9.155,66.58,5,70.732,5,75.857
	c0,5.129,4.155,9.285,9.282,9.285c5.127,0,9.282-4.156,9.282-9.285C23.563,70.732,19.408,66.58,14.282,66.58z M58.704,24.14
	c0-5.127-4.153-9.282-9.282-9.282c-5.125,0-9.282,4.155-9.282,9.282c0,5.126,4.157,9.282,9.282,9.282
	C54.551,33.421,58.704,29.267,58.704,24.14z M35.443,38.054l6.542,4.53l4.468-6.456l-6.543-4.53L35.443,38.054z M22.039,57.416
	l-4.469,6.451l6.543,4.531l4.468-6.449L22.039,57.416z M26.507,50.961l6.542,4.529l4.468-6.453l-6.543-4.53L26.507,50.961z
	 M68.855,44.507l-6.543,4.53l4.469,6.453l6.543-4.529L68.855,44.507z M64.389,38.052l-4.469-6.454l-6.543,4.53l4.469,6.454
	L64.389,38.052z M77.792,57.414l-6.543,4.531l4.468,6.453l6.543-4.531L77.792,57.414z M67.598,79.836h7.07v-7.957h-7.07V79.836z
	 M25.16,79.836h7.073v-7.957H25.16V79.836z M53.451,79.836h7.074v-7.957h-7.074V79.836z M39.307,79.836h7.069v-7.957h-7.069V79.836z
	"/>
</svg>
