<?xml version="1.0" encoding="utf-8"?>
<!-- Generator: Adobe Illustrator 15.0.2, SVG Export Plug-In . SVG Version: 6.00 Build 0)  -->
<!DOCTYPE svg PUBLIC "-//W3C//DTD SVG 1.1//EN" "http://www.w3.org/Graphics/SVG/1.1/DTD/svg11.dtd">
<svg version="1.1" id="Layer_1" xmlns="http://www.w3.org/2000/svg" xmlns:xlink="http://www.w3.org/1999/xlink" x="0px" y="0px"
	 width="100px" height="100px" viewBox="0 0 100 100" enable-background="new 0 0 100 100" xml:space="preserve">
<path fill="#4E59A4" d="M82.935,64.255c0-3.844-1.984-7.315-5.643-10.104c0.543-1.34,0.883-2.731,0.883-4.173
	c0-3.844-1.984-7.315-5.644-10.104c0.544-1.341,0.884-2.733,0.884-4.174c0-2.544-1-4.95-2.701-7.121
	c1.701-2.191,2.701-4.61,2.701-7.157C73.417,12.06,61.303,5,45.24,5c-16.063,0-28.175,7.06-28.175,16.421
	c0,2.542,0.997,4.957,2.703,7.153c-1.701,2.173-2.703,4.578-2.703,7.125c0,3.792,2.021,7.311,5.654,10.121
	c-0.549,1.34-0.894,2.73-0.894,4.157c0,3.792,2.021,7.312,5.653,10.123c-0.548,1.34-0.895,2.729-0.895,4.155
	c0,1.44,0.34,2.835,0.886,4.175c-3.66,2.787-5.645,6.26-5.645,10.104C21.825,87.922,33.937,95,50,95
	c16.062,0,28.174-7.078,28.174-16.467c0-1.428-0.344-2.817-0.893-4.155C80.908,71.57,82.935,68.048,82.935,64.255z M73.417,64.255
	c0,1.019-1.524,2.808-4.891,4.336c-3.61,1.659-8.627,2.612-13.767,2.612c-8.859,0-14.866-2.594-17.335-4.829
	c-0.769-0.688-1.188-1.376-1.262-1.947c4.194,1.312,8.971,2.019,13.837,2.019c8.189,0,15.682-1.916,20.868-5.184
	C72.585,62.404,73.417,63.529,73.417,64.255z M27.299,34.242c4.987,2.303,11.275,3.646,17.94,3.646
	c6.646,0,12.921-1.336,17.937-3.648c0.461,0.535,0.721,1.043,0.721,1.459c0,0.595-0.482,1.366-1.338,2.133
	c-2.454,2.222-8.459,4.815-17.318,4.815c-5.119,0-10.022-0.934-13.783-2.619c-3.349-1.524-4.873-3.312-4.873-4.33
	C26.584,35.283,26.844,34.776,27.299,34.242z M45.24,52.166c8.189,0,15.682-1.915,20.869-5.185c1.715,1.146,2.547,2.272,2.547,2.995
	c0,0.594-0.483,1.367-1.339,2.133c-2.454,2.223-8.459,4.814-17.317,4.814c-5.122,0-10.023-0.934-13.783-2.617
	c-3.188-1.451-4.676-3.121-4.817-4.159C35.597,51.457,40.375,52.166,45.24,52.166z M45.24,14.519
	c11.573,0,18.656,4.469,18.656,6.902c0,0.66-0.706,1.896-2.641,3.165c-3.74,2.368-9.728,3.783-16.017,3.783
	c-6.288,0-12.274-1.415-15.951-3.742c-1.996-1.311-2.705-2.547-2.705-3.207C26.584,18.987,33.667,14.519,45.24,14.519z M50,85.48
	c-11.573,0-18.656-4.498-18.656-6.947c0-0.727,0.832-1.852,2.549-2.993c5.194,3.271,12.682,5.183,20.866,5.183
	c4.918,0,9.695-0.697,13.831-1.994C68.253,81.215,61.285,85.48,50,85.48z"/>
</svg>
