<?xml version="1.0" encoding="utf-8"?>
<!-- Generator: Adobe Illustrator 15.0.2, SVG Export Plug-In . SVG Version: 6.00 Build 0)  -->
<!DOCTYPE svg PUBLIC "-//W3C//DTD SVG 1.1//EN" "http://www.w3.org/Graphics/SVG/1.1/DTD/svg11.dtd">
<svg version="1.1" id="Layer_1" xmlns="http://www.w3.org/2000/svg" xmlns:xlink="http://www.w3.org/1999/xlink" x="0px" y="0px"
	 width="100px" height="100px" viewBox="0 0 100 100" enable-background="new 0 0 100 100" xml:space="preserve">
<path fill="#4E59A4" d="M89.172,82.819c2.206,2.205,3.296,3.182,5.827,3.182v9c-6.362,0-9.729-3.361-12.19-5.818
	c-2.205-2.205-3.291-3.182-5.826-3.182s-3.621,0.977-5.828,3.182c-2.461,2.457-5.827,5.818-12.192,5.818
	c-6.364,0-9.723-3.366-12.18-5.818c-2.204-2.205-3.285-3.182-5.812-3.182c-2.525,0-3.606,0.977-5.81,3.182
	c-2.454,2.452-5.814,5.818-12.175,5.818c-6.361,0-9.72-3.366-12.175-5.818C8.606,86.978,7.525,86.001,5,86.001v-9
	c6.361,0,9.724,3.365,12.176,5.818c2.204,2.205,3.283,3.182,5.808,3.182s3.604-0.977,5.808-3.182
	c2.455-2.453,5.816-5.818,12.178-5.818c6.364,0,9.723,3.365,12.18,5.818c2.205,2.205,3.285,3.182,5.812,3.182
	c2.535,0,3.621-0.977,5.829-3.182c2.461-2.457,5.824-5.818,12.191-5.818C83.352,77.001,86.712,80.362,89.172,82.819z M33.629,51.051
	c1.243-1.23,2.784-3.09,4.952-5.906c0.237-0.308,0.488-0.633,0.736-0.954c-4.106-3.23-6.476-8.332-6.476-13.315
	c0.001-9.308,7.571-16.877,16.877-16.877c7.769,0,14.375,5.302,16.277,12.626c1.301-0.146,2.644-0.25,4.062-0.25
	c1.812,0,3.508,0.151,5.133,0.389c-2-12.466-12.731-21.765-25.472-21.765c-14.267,0-25.876,11.608-25.876,25.876
	C23.842,38.875,27.521,46.203,33.629,51.051z M94.395,50.633c-5.502-7.152-11.737-15.258-24.338-15.258
	c-12.604,0-18.84,8.105-24.34,15.258c-5.601,7.277-9.431,11.742-17.205,11.742c-7.768,0-11.591-4.465-17.188-11.742
	C9.395,48.119,7.356,45.509,5,43.153v14.009c5.313,6.874,11.525,14.214,23.512,14.214c12.602,0,18.838-8.104,24.337-15.259
	c5.602-7.277,9.432-11.742,17.207-11.742c7.774,0,11.603,4.465,17.2,11.742c2.304,2.997,4.772,6.126,7.743,8.789V51.415
	C94.798,51.15,94.604,50.905,94.395,50.633z"/>
</svg>
