<?xml version="1.0" encoding="utf-8"?>
<!-- Generator: Adobe Illustrator 15.0.2, SVG Export Plug-In . SVG Version: 6.00 Build 0)  -->
<!DOCTYPE svg PUBLIC "-//W3C//DTD SVG 1.1//EN" "http://www.w3.org/Graphics/SVG/1.1/DTD/svg11.dtd">
<svg version="1.1" id="Layer_1" xmlns="http://www.w3.org/2000/svg" xmlns:xlink="http://www.w3.org/1999/xlink" x="0px" y="0px"
	 width="100px" height="100px" viewBox="0 0 100 100" enable-background="new 0 0 100 100" xml:space="preserve">
<path fill="#4E59A4" d="M82.309,63.452c-6.996,0-12.688,5.693-12.688,12.691c0,6.994,5.692,12.688,12.688,12.688
	C89.311,88.833,95,83.14,95,76.146C95,69.146,89.311,63.452,82.309,63.452z M82.309,81.494c-2.949,0-5.351-2.4-5.351-5.351
	c0-2.953,2.399-5.354,5.351-5.354c2.953,0,5.354,2.4,5.354,5.354C87.661,79.094,85.262,81.494,82.309,81.494z M26.708,45.413
	C14.738,45.413,5,55.152,5,67.121c0,11.973,9.738,21.712,21.708,21.712c11.972,0,21.712-9.739,21.712-21.712
	C48.42,55.152,38.68,45.413,26.708,45.413z M26.708,81.494c-7.923,0-14.369-6.446-14.369-14.373c0-7.923,6.446-14.369,14.369-14.369
	c7.925,0,14.373,6.446,14.373,14.369C41.081,75.048,34.633,81.494,26.708,81.494z M78.639,48.778h-27.65L36.272,18.506H22.551
	l-3.219,22.536l-7.264-1.04l4.12-28.835h24.678l14.717,30.272h30.396v17.43h-7.34V48.778z"/>
</svg>
