<?xml version="1.0" encoding="utf-8"?>
<!-- Generator: Adobe Illustrator 15.0.2, SVG Export Plug-In . SVG Version: 6.00 Build 0)  -->
<!DOCTYPE svg PUBLIC "-//W3C//DTD SVG 1.1//EN" "http://www.w3.org/Graphics/SVG/1.1/DTD/svg11.dtd">
<svg version="1.1" id="Layer_1" xmlns="http://www.w3.org/2000/svg" xmlns:xlink="http://www.w3.org/1999/xlink" x="0px" y="0px"
	 width="100px" height="100px" viewBox="0 0 100 100" enable-background="new 0 0 100 100" xml:space="preserve">
<path fill="#4E59A4" d="M86.818,37.727H62.271V13.182C62.271,8.668,58.604,5,54.09,5h-8.181c-4.513,0-8.182,3.669-8.182,8.182
	v24.545H13.182C8.668,37.727,5,41.396,5,45.909v8.181c0,4.516,3.669,8.184,8.182,8.184h24.545v24.545
	c0,4.516,3.669,8.182,8.182,8.182h8.181c4.514,0,8.184-3.666,8.184-8.182V62.271h24.545c4.516,0,8.182-3.666,8.182-8.182v-8.182
	C95,41.396,91.332,37.727,86.818,37.727z"/>
</svg>
