<?xml version="1.0" encoding="utf-8"?>
<!-- Generator: Adobe Illustrator 15.0.2, SVG Export Plug-In . SVG Version: 6.00 Build 0)  -->
<!DOCTYPE svg PUBLIC "-//W3C//DTD SVG 1.1//EN" "http://www.w3.org/Graphics/SVG/1.1/DTD/svg11.dtd">
<svg version="1.1" id="Layer_1" xmlns="http://www.w3.org/2000/svg" xmlns:xlink="http://www.w3.org/1999/xlink" x="0px" y="0px"
	 width="100px" height="100px" viewBox="0 0 100 100" enable-background="new 0 0 100 100" xml:space="preserve">
<path fill="#4E59A4" d="M50,13.182l0.044,0.002v-4.44l0.463-3.711L50,5c-2.938,0-5.873,0.286-8.725,0.847l1.582,8.026
	C45.188,13.416,47.591,13.182,50,13.182z M13.182,50v-0.088L5,50c0,2.916,0.282,5.841,0.837,8.677l8.03-1.569
	C13.412,54.786,13.182,52.393,13.182,50z M35.956,15.955l-3.124-7.563c-2.713,1.121-5.33,2.517-7.783,4.153l4.542,6.808
	C31.597,18.012,33.738,16.869,35.956,15.955z M15.999,35.848L8.448,32.7c-1.135,2.718-2,5.559-2.573,8.439l8.022,1.598
	C14.366,40.386,15.073,38.069,15.999,35.848z M24.006,23.924l-5.777-5.792c-2.085,2.077-3.971,4.366-5.605,6.799l6.792,4.562
	C20.754,27.502,22.298,25.628,24.006,23.924z M86.818,50v0.176L95,50c0-2.948-0.288-5.895-0.854-8.769l-8.026,1.586
	C86.582,45.166,86.818,47.587,86.818,50z M81.836,18.198c-2.081-2.083-4.374-3.967-6.807-5.599l-4.555,6.795
	c1.992,1.336,3.871,2.878,5.572,4.584L81.836,18.198z M67.259,8.428c-2.717-1.128-5.558-1.992-8.444-2.565l-1.592,8.026
	c2.357,0.467,4.678,1.172,6.896,2.093L67.259,8.428z M84.029,35.919l7.559-3.132c-1.117-2.707-2.518-5.324-4.154-7.776l-6.808,4.546
	C81.968,31.565,83.115,33.704,84.029,35.919z M15.938,64.011l-7.562,3.116c1.121,2.721,2.515,5.341,4.145,7.786l6.808-4.538
	C17.998,68.377,16.857,66.234,15.938,64.011z M50.194,86.822l-0.324-0.004L50,95c2.904,0,5.807-0.279,8.629-0.827l-1.562-8.03
	C54.76,86.591,52.381,86.818,50.194,86.822z M63.979,84.073l3.104,7.571c2.717-1.115,5.337-2.51,7.79-4.141l-4.521-6.814
	C68.341,82.023,66.195,83.167,63.979,84.073z M83.971,64.223l7.547,3.164c1.135-2.709,2.004-5.546,2.588-8.43l-8.021-1.622
	C85.611,59.691,84.9,62.009,83.971,64.223z M75.936,76.128l5.77,5.81c2.09-2.078,3.979-4.363,5.617-6.793l-6.783-4.569
	C79.195,72.562,77.648,74.434,75.936,76.128z M18.098,81.736c2.078,2.09,4.365,3.979,6.797,5.617l4.566-6.793
	c-1.989-1.338-3.861-2.884-5.563-4.594L18.098,81.736z M32.656,91.536c2.716,1.135,5.555,2.002,8.438,2.581l1.61-8.021
	c-2.355-0.472-4.674-1.184-6.892-2.109L32.656,91.536z M30.718,28.699c-1.975,1.978-2.97,2.858-5.199,2.882
	c-1.736,2.303-3.152,4.85-4.189,7.588c1.201,0.37,2.547,0.604,4.107,0.604c5.783,0,8.839-3.057,11.07-5.29
	c2.003-2.005,2.984-2.893,5.279-2.893c2.297,0,3.28,0.887,5.284,2.893c2.233,2.233,5.288,5.29,11.073,5.29
	c5.789,0,8.846-3.057,11.082-5.286c1.993-1.998,2.987-2.882,5.266-2.893c-1.869-2.483-4.1-4.672-6.623-6.49
	c-1.87,1.061-3.27,2.433-4.428,3.591c-2.008,2.008-2.991,2.895-5.297,2.895c-2.297,0-3.279-0.887-5.283-2.892
	c-2.233-2.231-5.289-5.29-11.072-5.29C36.003,23.409,32.949,26.467,30.718,28.699z M74.521,41.818
	c-5.785,0-8.846,3.056-11.082,5.289C61.432,49.113,60.447,50,58.143,50c-2.297,0-3.279-0.887-5.283-2.893
	c-2.233-2.231-5.289-5.289-11.072-5.289c-5.783,0-8.837,3.058-11.068,5.289C28.714,49.113,27.732,50,25.437,50
	s-3.278-0.887-5.281-2.893c-0.198-0.2-0.41-0.407-0.622-0.615c-0.132,1.155-0.215,2.321-0.215,3.508
	c0,2.477,0.325,4.866,0.883,7.175c1.458,0.607,3.166,1.007,5.235,1.007c5.783,0,8.839-3.06,11.07-5.289
	C38.51,50.887,39.491,50,41.786,50c2.297,0,3.28,0.887,5.284,2.893c2.233,2.229,5.288,5.289,11.073,5.289
	c5.789,0,8.846-3.056,11.082-5.285C71.229,50.887,72.221,50,74.521,50c2.31,0,3.291,0.887,5.306,2.896
	c0.198,0.203,0.419,0.414,0.635,0.627c0.132-1.158,0.22-2.33,0.22-3.523c0-2.469-0.326-4.858-0.879-7.163
	C78.337,42.224,76.615,41.818,74.521,41.818z M69.225,71.302c1.993-1.993,2.987-2.877,5.258-2.889
	c1.733-2.297,3.147-4.838,4.187-7.57c-1.21-0.376-2.567-0.614-4.146-0.614c-5.785,0-8.846,3.056-11.082,5.289
	c-2.008,2.006-2.992,2.893-5.299,2.893c-2.297,0-3.279-0.887-5.283-2.893c-2.232-2.233-5.288-5.289-11.071-5.289
	c-5.783,0-8.837,3.056-11.068,5.289c-1.979,1.98-2.972,2.863-5.211,2.885c1.866,2.477,4.091,4.662,6.608,6.479
	c1.855-1.062,3.24-2.429,4.393-3.579c2.003-2.006,2.984-2.893,5.279-2.893c2.297,0,3.28,0.887,5.284,2.893
	c2.233,2.229,5.288,5.289,11.071,5.289C63.932,76.591,66.986,73.535,69.225,71.302z"/>
</svg>
